<?xml version="1.0" encoding="UTF-8" standalone="no"?>
<svg
   xmlns:dc="http://purl.org/dc/elements/1.1/"
   xmlns:cc="http://creativecommons.org/ns#"
   xmlns:rdf="http://www.w3.org/1999/02/22-rdf-syntax-ns#"
   xmlns:svg="http://www.w3.org/2000/svg"
   xmlns="http://www.w3.org/2000/svg"
   height="22"
   width="18"
   id="svg8"
   xml:space="preserve"
   viewBox="0 0 18 22"
   y="0px"
   x="0px"
   version="1.1"><metadata
     id="metadata14"><rdf:RDF><cc:Work
         rdf:about=""><dc:format>image/svg+xml</dc:format><dc:type
           rdf:resource="http://purl.org/dc/dcmitype/StillImage" /><dc:title></dc:title></cc:Work></rdf:RDF></metadata><defs
     id="defs12" /><path
     id="path2"
     d="M 13,0 H 12 0 V 22 H 18 V 6 5 4.993 L 13.007,0 Z m 4,21 H 1 V 1 h 11 v 5 h 5 z M 13,5 V 1.407 L 16.593,5 Z m -6.095,9.985 c -0.133,0.063 -0.392,0.112 -0.707,0.112 -1.212,0 -1.786,-0.987 -1.786,-2.332 0,-1.779 0.988,-2.473 1.905,-2.473 0.322,0 0.546,0.063 0.638,0.126 L 6.8,11.188 C 6.695,11.139 6.575,11.097 6.372,11.097 c -0.518,0 -0.987,0.448 -0.987,1.618 0,1.128 0.428,1.569 0.987,1.569 0.154,0 0.329,-0.035 0.441,-0.07 z m 0.748,-0.869 c 0.189,0.105 0.519,0.182 0.777,0.182 0.428,0 0.645,-0.224 0.645,-0.532 0,-0.343 -0.21,-0.511 -0.609,-0.771 -0.644,-0.392 -0.889,-0.89 -0.889,-1.317 0,-0.756 0.504,-1.387 1.484,-1.387 0.315,0 0.609,0.084 0.742,0.168 L 9.657,11.251 C 9.523,11.167 9.32,11.09 9.061,11.09 c -0.393,0 -0.581,0.238 -0.581,0.491 0,0.28 0.14,0.427 0.644,0.735 0.631,0.378 0.854,0.854 0.854,1.352 0,0.861 -0.637,1.429 -1.555,1.429 -0.378,0 -0.742,-0.098 -0.903,-0.189 z m 3.871,0.939 -1.051,-4.721 h 1.016 l 0.337,2.038 c 0.076,0.511 0.175,1.086 0.237,1.639 h 0.015 c 0.062,-0.561 0.14,-1.128 0.224,-1.66 l 0.322,-2.017 h 1.009 l -1.079,4.721 z" /></svg>