<?xml version="1.0" encoding="UTF-8" standalone="no"?>
<svg
   xmlns:dc="http://purl.org/dc/elements/1.1/"
   xmlns:cc="http://creativecommons.org/ns#"
   xmlns:rdf="http://www.w3.org/1999/02/22-rdf-syntax-ns#"
   xmlns:svg="http://www.w3.org/2000/svg"
   xmlns="http://www.w3.org/2000/svg"
   viewBox="0 0 266.66666 266.66666"
   height="266.66666"
   width="266.66666"
   xml:space="preserve"
   id="svg2"
   version="1.1"><metadata
     id="metadata8"><rdf:RDF><cc:Work
         rdf:about=""><dc:format>image/svg+xml</dc:format><dc:type
           rdf:resource="http://purl.org/dc/dcmitype/StillImage" /><dc:title></dc:title></cc:Work></rdf:RDF></metadata><defs
     id="defs6"><clipPath
       id="clipPath18"
       clipPathUnits="userSpaceOnUse"><path
         id="path16"
         d="M 18.685,41.636 H 181.794 V 197.692 H 18.685 Z" /></clipPath><clipPath
       id="clipPath30"
       clipPathUnits="userSpaceOnUse"><path
         id="path28"
         d="M 18.685,54.815 H 181.794 V 184.512 H 18.685 Z" /></clipPath><clipPath
       id="clipPath42"
       clipPathUnits="userSpaceOnUse"><path
         id="path40"
         d="M 18.685,41.636 H 181.794 V 197.692 H 18.685 Z" /></clipPath><clipPath
       id="clipPath174"
       clipPathUnits="userSpaceOnUse"><path
         id="path172"
         d="M 0,200 H 200 V 0 H 0 Z" /></clipPath></defs><g
     transform="matrix(1.3333333,0,0,-1.3333333,0,266.66667)"
     id="g10"><g
       id="g12"><g
         clip-path="url(#clipPath18)"
         id="g14"><g
           transform="translate(57.5215,134.5566)"
           id="g20"><path
             id="path22"
             style="fill:#231f20;fill-opacity:1;fill-rule:nonzero;stroke:none"
             d="M 0,0 H 37.384 V 0.916 L 36.859,0.165 c 1.599,-1.112 3.779,-1.763 6.185,-1.766 2.405,0.003 4.585,0.654 6.184,1.766 L 48.703,0.916 V 0 H 86.088 V 1.832 H 48.415 L 48.179,1.667 C 46.959,0.811 45.112,0.229 43.044,0.231 40.975,0.229 39.127,0.811 37.909,1.667 L 37.672,1.832 H 0 Z" /></g></g></g><g
       id="g24"><g
         clip-path="url(#clipPath30)"
         id="g26"><g
           transform="translate(100.6455,137.4102)"
           id="g32"><path
             id="path34"
             style="fill:#231f20;fill-opacity:1;fill-rule:nonzero;stroke:none"
             d="M 0,0 C 6.175,7.89 17.849,6.448 25.913,4.057 30.721,2.632 39.268,1.972 41.646,2.501 L 30.891,41.775 C 27.51,41.458 21.804,43.22 18.669,44.382 13.306,46.37 4.604,49.226 0,44.638 -4.603,49.226 -13.306,46.37 -18.668,44.382 -21.804,43.22 -27.51,41.458 -30.891,41.775 L -41.646,2.501 C -39.268,1.972 -30.72,2.632 -25.913,4.057 -17.849,6.448 -6.174,7.89 0,0" /></g></g></g><g
       id="g36"><g
         clip-path="url(#clipPath42)"
         id="g38"><g
           transform="translate(92.1167,179.5449)"
           id="g44"><path
             id="path46"
             style="fill:#ffffff;fill-opacity:1;fill-rule:nonzero;stroke:none"
             d="m 0,0 c -3.681,-0.321 -7.47,-1.627 -10.312,-2.68 -2.169,-0.805 -5.605,-1.904 -8.583,-2.377 -0.269,-0.043 -0.452,-0.296 -0.409,-0.565 0.043,-0.269 0.296,-0.452 0.565,-0.409 3.09,0.492 6.556,1.606 8.771,2.427 2.816,1.045 6.542,2.318 10.053,2.621 0.271,0.024 0.472,0.263 0.449,0.534 C 0.51,-0.177 0.271,0.023 0,0 m -20.13,-11.479 c 2.227,0.325 4.622,0.914 6.609,1.54 0.951,0.299 1.851,0.595 2.651,0.859 3.106,1.03 7.054,2.144 10.72,2.199 0.272,0.005 0.489,0.229 0.485,0.501 -0.004,0.272 -0.228,0.489 -0.501,0.485 -3.85,-0.061 -7.871,-1.209 -11.013,-2.248 -0.8,-0.264 -1.695,-0.559 -2.638,-0.855 -1.94,-0.611 -4.296,-1.19 -6.455,-1.504 -0.27,-0.04 -0.457,-0.29 -0.417,-0.56 0.039,-0.269 0.289,-0.456 0.559,-0.417 m -1.391,-5.446 c 2.373,0.317 4.908,0.881 6.954,1.514 0.971,0.302 1.918,0.596 2.798,0.857 h 10e-4 c 3.1,0.926 6.842,1.804 10.38,1.803 0.337,0 0.673,-0.008 1.005,-0.025 0.272,-0.014 0.504,0.196 0.517,0.468 0.014,0.272 -0.196,0.504 -0.467,0.517 -0.351,0.018 -0.702,0.026 -1.055,0.026 -3.698,-10e-4 -7.516,-0.906 -10.662,-1.844 h 0.001 c -0.889,-0.264 -1.84,-0.558 -2.81,-0.859 -1.985,-0.615 -4.481,-1.172 -6.792,-1.48 -0.27,-0.036 -0.459,-0.284 -0.424,-0.554 0.036,-0.27 0.284,-0.459 0.554,-0.423 m -1.39,-5.447 c 2.518,0.309 5.193,0.849 7.299,1.491 0.99,0.302 1.984,0.594 2.947,0.854 v 0 c 2.973,0.805 6.4,1.481 9.706,1.48 0.792,0 1.577,-0.038 2.347,-0.123 0.271,-0.029 0.514,0.166 0.544,0.437 0.03,0.271 -0.166,0.514 -0.436,0.544 -0.81,0.088 -1.631,0.129 -2.455,0.129 -3.438,-0.001 -6.94,-0.697 -9.963,-1.515 v 0 c -0.978,-0.263 -1.981,-0.559 -2.978,-0.862 -2.031,-0.621 -4.668,-1.154 -7.13,-1.456 -0.271,-0.033 -0.463,-0.279 -0.43,-0.549 0.033,-0.271 0.279,-0.463 0.549,-0.43 m -1.388,-5.447 c 2.662,0.302 5.478,0.817 7.641,1.466 1.011,0.305 2.053,0.596 3.098,0.853 2.822,0.698 5.961,1.225 9.027,1.224 1.253,0 2.492,-0.087 3.694,-0.286 0.268,-0.044 0.522,0.138 0.567,0.407 0.044,0.268 -0.138,0.522 -0.407,0.567 -1.262,0.208 -2.555,0.298 -3.854,0.298 -3.178,0 -6.388,-0.542 -9.263,-1.252 -1.065,-0.262 -2.122,-0.558 -3.146,-0.866 -2.077,-0.625 -4.855,-1.135 -7.468,-1.43 -0.271,-0.031 -0.465,-0.275 -0.435,-0.546 0.031,-0.271 0.275,-0.465 0.546,-0.435 m -1.388,-5.446 c 2.808,0.295 5.762,0.784 7.985,1.442 3.458,1.026 7.582,1.872 11.618,1.871 1.709,0 3.401,-0.151 5.021,-0.502 0.266,-0.057 0.528,0.112 0.585,0.378 0.058,0.266 -0.111,0.529 -0.377,0.587 -1.701,0.367 -3.462,0.524 -5.229,0.524 -4.172,-0.001 -8.377,-0.868 -11.898,-1.912 -2.125,-0.63 -5.044,-1.118 -7.809,-1.407 -0.271,-0.029 -0.467,-0.271 -0.438,-0.542 0.028,-0.271 0.271,-0.468 0.542,-0.439 m 42.66,32.282 c 3.511,-0.303 7.236,-1.576 10.053,-2.621 2.215,-0.821 5.682,-1.935 8.771,-2.427 0.269,-0.043 0.522,0.14 0.565,0.409 0.043,0.269 -0.141,0.522 -0.41,0.565 -2.978,0.473 -6.412,1.572 -8.583,2.377 -2.841,1.053 -6.63,2.359 -10.311,2.68 -0.271,0.023 -0.511,-0.177 -0.534,-0.449 -0.024,-0.271 0.178,-0.51 0.449,-0.534 m 20.358,-9.519 c -2.16,0.314 -4.516,0.893 -6.456,1.504 -0.943,0.296 -1.839,0.591 -2.639,0.855 -3.143,1.039 -7.162,2.187 -11.012,2.248 -0.272,0.004 -0.497,-0.213 -0.501,-0.485 -0.004,-0.272 0.213,-0.497 0.485,-0.501 3.667,-0.055 7.613,-1.169 10.719,-2.199 0.801,-0.264 1.701,-0.56 2.652,-0.859 1.987,-0.626 4.381,-1.215 6.609,-1.54 0.27,-0.039 0.52,0.148 0.56,0.417 0.039,0.27 -0.148,0.52 -0.417,0.56 m 1.377,-5.446 c -2.31,0.308 -4.806,0.865 -6.791,1.48 -0.971,0.301 -1.921,0.595 -2.811,0.859 h 10e-4 c -3.146,0.938 -6.963,1.843 -10.661,1.844 -0.353,0 -0.704,-0.008 -1.055,-0.026 -0.271,-0.013 -0.481,-0.245 -0.468,-0.517 0.014,-0.272 0.245,-0.482 0.518,-0.468 0.332,0.017 0.667,0.025 1.005,0.025 3.538,10e-4 7.279,-0.877 10.379,-1.803 l 0.001,-10e-4 c 0.882,-0.26 1.828,-0.554 2.799,-0.855 2.046,-0.634 4.582,-1.198 6.953,-1.515 0.269,-0.036 0.518,0.153 0.553,0.423 0.036,0.27 -0.153,0.518 -0.423,0.554 m 1.38,-5.445 c -2.463,0.302 -5.099,0.835 -7.13,1.456 -0.997,0.303 -2.001,0.599 -2.978,0.862 -3.022,0.818 -6.524,1.514 -9.963,1.515 -0.824,0 -1.645,-0.041 -2.454,-0.129 -0.271,-0.03 -0.467,-0.273 -0.437,-0.544 0.03,-0.271 0.273,-0.466 0.544,-0.437 0.77,0.085 1.555,0.123 2.347,0.123 3.305,0.001 6.733,-0.675 9.706,-1.48 0.962,-0.26 1.957,-0.552 2.947,-0.854 2.105,-0.642 4.781,-1.182 7.298,-1.491 0.271,-0.033 0.517,0.159 0.55,0.43 0.033,0.27 -0.159,0.516 -0.43,0.549 m 1.38,-5.445 c -2.613,0.295 -5.392,0.805 -7.468,1.43 -1.024,0.308 -2.082,0.604 -3.147,0.866 -2.874,0.71 -6.084,1.252 -9.263,1.252 -1.298,0 -2.591,-0.09 -3.853,-0.298 -0.27,-0.045 -0.451,-0.299 -0.407,-0.567 0.045,-0.269 0.298,-0.451 0.567,-0.407 1.201,0.199 2.441,0.286 3.693,0.286 3.067,0.001 6.205,-0.526 9.027,-1.224 1.046,-0.257 2.088,-0.548 3.098,-0.853 2.163,-0.649 4.98,-1.164 7.642,-1.466 0.27,-0.03 0.515,0.164 0.546,0.435 0.03,0.271 -0.164,0.515 -0.435,0.546 m 1.38,-5.446 c -2.765,0.289 -5.683,0.777 -7.808,1.407 -3.521,1.044 -7.726,1.911 -11.898,1.912 -1.767,0 -3.528,-0.157 -5.228,-0.524 -0.267,-0.058 -0.436,-0.321 -0.378,-0.587 0.057,-0.266 0.32,-0.435 0.586,-0.378 1.619,0.351 3.311,0.502 5.02,0.502 4.035,0.001 8.16,-0.845 11.617,-1.871 2.223,-0.658 5.178,-1.147 7.987,-1.442 0.27,-0.029 0.512,0.168 0.542,0.439 0.028,0.27 -0.169,0.513 -0.44,0.542" /></g><g
           transform="translate(94.8955,181.6685)"
           id="g48"><path
             id="path50"
             style="fill:#ffffff;fill-opacity:1;fill-rule:nonzero;stroke:none"
             d="m 0,0 c -0.757,-0.74 -1.289,-1.473 -1.271,-2.729 0.023,-1.633 1.53,-3.07 3.394,-3.935 2.406,-1.114 4.591,-2.112 5.541,-2.488 1.834,-0.725 1.95,-1.119 1.961,-1.926 0.011,-0.864 -0.715,-1.197 -1.339,-1.197 -0.916,0 -1.637,0.429 -2.372,0.951 -0.727,0.516 -1.38,0.716 -2.336,0.716 -1.785,0 -4.106,-1.092 -4.086,-4.086 0.012,-1.762 1.092,-3.32 4.544,-4.638 1.691,-0.646 3.084,-1.339 3.735,-1.597 0.68,-0.27 1.29,-0.587 1.29,-1.444 0,-0.709 -0.517,-1.092 -1.209,-1.092 -0.646,0 -1.42,0.423 -2.102,0.86 -0.487,0.313 -0.986,0.467 -2.089,0.467 -1.292,0 -3.493,-0.951 -3.453,-3.476 0.024,-1.514 0.799,-2.759 2.442,-3.428 l 5.061,-2.114 c 0.657,-0.293 0.88,-0.669 0.856,-1.162 -0.023,-0.516 -0.429,-0.763 -0.962,-0.763 -0.469,0 -1.117,0.305 -1.878,0.705 -0.716,0.376 -1.362,0.657 -2.231,0.657 -1.538,0 -2.701,-1.092 -2.713,-2.736 -0.005,-0.7 0.424,-1.843 1.949,-2.583 0.958,-0.463 4.028,-1.843 4.814,-2.172 0.685,-0.287 1.434,-0.294 1.748,0.239 0.342,0.583 -0.214,1.321 -0.913,1.628 -0.7,0.307 -4.241,1.911 -5.19,2.336 -0.341,0.153 -0.6,0.364 -0.6,0.81 0,0.447 0.471,0.843 0.963,0.834 0.67,-0.012 2.924,-1.702 4.344,-1.702 1.403,0 3.057,1.299 3.041,3.017 -0.011,1.35 -0.575,2.372 -1.89,2.994 l -5.764,2.548 c -0.56,0.283 -0.929,0.552 -0.929,1.104 0,0.54 0.376,0.923 0.964,0.915 0.998,-0.011 1.949,-0.669 2.43,-0.912 0.269,-0.136 1.303,-0.639 2.29,-0.638 1.797,0.003 3.778,1.677 3.733,3.805 -0.044,2.142 -0.801,2.751 -2.218,3.428 -1.574,0.752 -4.076,1.841 -5.742,2.56 -1.386,0.598 -1.503,1.116 -1.503,1.702 0,0.951 0.481,1.187 1.233,1.187 0.746,0 1.514,-0.646 2.207,-1.09 0.882,-0.564 2.008,-0.6 3.131,-0.593 2.352,0.015 3.795,2.27 3.773,3.761 -0.036,2.371 -1.467,3.522 -3.276,4.309 -1.086,0.472 -3.71,1.589 -6.076,2.626 -0.863,0.379 -1.603,0.758 -1.604,1.53 0,0.779 0.394,0.899 0.75,1.289 0.355,0.389 0.515,1.352 -0.044,1.894 C 1.845,0.911 0.757,0.74 0,0" /></g><g
           transform="translate(95.2446,180.1724)"
           id="g52"><path
             id="path54"
             style="fill:#231f20;fill-opacity:1;fill-rule:nonzero;stroke:none"
             d="M 0,0 C 0.33,0 0.598,0.268 0.598,0.599 0.598,0.928 0.33,1.196 0,1.196 -0.33,1.196 -0.598,0.928 -0.598,0.599 -0.598,0.268 -0.33,0 0,0" /></g><g
           transform="translate(67.0654,119.1851)"
           id="g56"><path
             id="path58"
             style="fill:#231f20;fill-opacity:1;fill-rule:nonzero;stroke:none"
             d="M 0,0 C 0,0.947 0,3.136 -0.296,3.936 -0.681,4.942 -1.995,4.942 -2.942,4.942 V 5.943 H 12.776 V 1.374 H 11.995 C 11.467,4.625 9.468,4.738 6.859,4.738 H 4.729 C 3.812,4.738 3.96,4.828 3.96,3.526 v -6.608 c 3.733,-0.163 4.332,1.503 4.518,3.741 H 9.362 C 9.332,-0.672 9.303,-2.135 9.244,-3.466 9.303,-4.68 9.332,-6.125 9.362,-7.338 H 8.478 C 8.082,-4.372 6.593,-4.083 3.96,-4.083 v -4.346 c 0,-0.887 0,-2.481 0.533,-3.191 0.769,-1.036 2.603,-1.095 3.786,-1.066 2.452,0.048 4.799,0.574 5.17,3.965 h 0.781 l -0.063,-4.864 H -1.726 v 0.781 c 0.583,0 1.299,0.501 1.531,1.108 C 0.101,-10.897 0,-8.81 0,-7.862 Z" /></g><g
           transform="translate(115.3389,92.1338)"
           id="g60"><path
             id="path62"
             style="fill:#231f20;fill-opacity:1;fill-rule:nonzero;stroke:none"
             d="M 0,0 C 0,0.946 0,3.137 -0.295,3.936 -0.68,4.941 -1.994,4.941 -2.94,4.941 V 5.943 H 12.778 V 1.374 H 11.995 C 11.469,4.625 9.469,4.738 6.86,4.738 H 4.731 C 3.813,4.738 3.96,4.827 3.96,3.525 V -3.081 C 7.694,-3.245 8.292,-1.579 8.479,0.66 H 9.362 C 9.333,-0.672 9.304,-2.135 9.245,-3.466 9.304,-4.679 9.333,-6.125 9.362,-7.338 H 8.479 C 8.084,-4.372 6.595,-4.083 3.96,-4.083 v -4.346 c 0,-0.887 0,-2.481 0.533,-3.19 0.769,-1.036 2.604,-1.096 3.787,-1.067 2.453,0.048 4.799,0.574 5.169,3.965 h 0.783 l -0.063,-4.865 H -1.725 v 0.782 c 0.583,0 1.299,0.501 1.531,1.108 0.297,0.8 0.194,2.887 0.194,3.834 z" /></g><g
           transform="translate(152.6289,92.1338)"
           id="g64"><path
             id="path66"
             style="fill:#231f20;fill-opacity:1;fill-rule:nonzero;stroke:none"
             d="M 0,0 C 0,0.946 0,3.137 -0.296,3.936 -0.68,4.941 -1.995,4.941 -2.942,4.941 V 5.943 H 12.776 V 1.374 H 11.995 C 11.468,4.625 9.468,4.738 6.859,4.738 h -2.13 c -0.916,0 -0.77,0.089 -0.77,-1.213 v -6.606 c 3.734,-0.164 4.333,1.502 4.52,3.741 H 9.361 C 9.332,-0.672 9.303,-2.135 9.244,-3.466 9.303,-4.679 9.332,-6.125 9.361,-7.338 H 8.479 c -0.397,2.966 -1.885,3.255 -4.52,3.255 v -4.346 c 0,-0.887 0,-2.481 0.533,-3.19 0.77,-1.036 2.604,-1.096 3.788,-1.067 2.451,0.048 4.799,0.574 5.168,3.965 h 0.783 l -0.063,-4.865 H -1.726 v 0.782 c 0.583,0 1.299,0.501 1.532,1.108 0.296,0.8 0.194,2.887 0.194,3.834 z" /></g><g
           transform="translate(88.8198,110.8989)"
           id="g68"><path
             id="path70"
             style="fill:#231f20;fill-opacity:1;fill-rule:nonzero;stroke:none"
             d="m 0,0 c 0,-1.006 -0.118,-2.427 0.473,-3.285 0.681,-1.006 1.885,-1.023 3.01,-1.023 4.57,0 5.372,3.785 5.372,7.905 0,5.506 -1.626,9.781 -6.902,9.781 -0.355,0 -1.51,0.06 -1.775,-0.207 C 0,12.994 0,12.491 0,12.254 Z m -3.859,8.497 c 0,0.946 0,3.136 -0.266,3.935 -0.326,1.035 -1.568,1.006 -2.515,1.006 v 0.841 c 1.213,-0.029 2.891,-0.089 4.134,-0.118 1.597,0.029 3.601,0.089 5.198,0.118 6.243,0.118 10.774,-3.787 10.774,-10.208 0,-6.274 -3.91,-9.529 -10.004,-9.38 C 1.716,-5.28 -0.465,-5.22 -2.21,-5.191 -3.571,-5.22 -5.309,-5.28 -6.64,-5.309 v 0.782 c 0.947,0 2.189,0 2.515,1.006 0.266,0.799 0.266,2.988 0.266,3.936 z" /></g><g
           transform="translate(104.0908,119.4546)"
           id="g72"><path
             id="path74"
             style="fill:#231f20;fill-opacity:1;fill-rule:nonzero;stroke:none"
             d="m 0,0 c 0,0.946 0.202,2.832 -0.094,3.631 -0.385,1.006 -1.8,1.31 -2.747,1.31 v 0.782 c 1.42,-0.029 3.247,-0.089 4.666,-0.119 1.509,0.03 3.192,0.09 4.67,0.119 V 4.941 C 5.549,4.941 4.336,4.536 3.951,3.529 3.655,2.731 3.858,0.946 3.858,0 v -8.142 c 0,-0.947 -0.101,-2.832 0.195,-3.631 0.385,-1.006 2.104,-1.31 3.051,-1.31 v -0.782 c -1.389,0.03 -3.651,0.09 -5.072,0.119 -1.479,-0.029 -3.595,-0.089 -5.076,-0.119 v 0.782 c 0.947,0 2.466,0.203 2.849,1.209 C 0.102,-11.075 0,-9.089 0,-8.142 Z" /></g><g
           transform="translate(126.7383,125.2295)"
           id="g76"><path
             id="path78"
             style="fill:#231f20;fill-opacity:1;fill-rule:nonzero;stroke:none"
             d="M 0,0 H 0.849 L 1.086,-5.626 H 0.202 c -0.473,3.097 -2.778,5.187 -5.735,5.187 -5.531,0 -6.692,-5.151 -6.692,-9.777 0,-4.186 1.733,-8.827 6.852,-8.827 3.754,0 5.399,3.221 6.031,6.51 h 0.838 v -6.683 H 0.807 l -0.711,1.611 c -1.596,-1.264 -2.845,-2.524 -6.436,-2.524 -6.421,0 -10.495,4.271 -10.495,9.913 0,6.897 4.532,10.761 10.761,10.761 2.427,0 3.559,-0.461 5.6,-1.732 z" /></g><g
           transform="translate(139.8809,113.397)"
           id="g80"><path
             id="path82"
             style="fill:#231f20;fill-opacity:1;fill-rule:nonzero;stroke:none"
             d="M 0,0 -3.051,7.837 -6.133,0 Z m -6.683,-1.788 c -0.444,-1.124 -1.116,-2.807 -1.116,-3.961 0,-1.082 1.432,-1.287 2.296,-1.373 v -0.782 c -1.095,0.029 -2.363,0.089 -3.458,0.118 -1.036,-0.029 -2.346,-0.089 -3.381,-0.118 v 0.782 c 1.359,0.15 2.543,1.123 2.942,2.101 0.829,1.893 1.628,3.656 2.456,5.55 l 4.527,11.628 h 1.513 L 5.071,-2.773 C 5.427,-3.542 6.078,-5.348 6.61,-6.027 7.262,-6.886 8.148,-7.005 9.155,-7.122 V -7.904 C 7.765,-7.875 6.04,-7.815 4.649,-7.786 3.229,-7.815 1.171,-7.875 -0.25,-7.904 v 0.782 c 0.618,0.022 2.279,0.486 2.279,1.327 0,0.285 -0.466,1.785 -0.592,2.105 l -1.154,2.642 h -6.699 z" /></g><g
           transform="translate(151.1191,119.4131)"
           id="g84"><path
             id="path86"
             style="fill:#231f20;fill-opacity:1;fill-rule:nonzero;stroke:none"
             d="M 0,0 C 0,0.947 -0.102,3.036 -0.396,3.834 -0.781,4.84 -1.894,4.943 -2.84,4.943 V 5.724 C -1.42,5.694 0.174,5.636 1.594,5.606 3.103,5.636 4.887,5.694 6.396,5.724 V 4.943 C 5.448,4.943 4.313,4.966 3.93,3.959 3.634,3.161 3.758,0.947 3.758,0 v -8.352 c 0,-3.788 0.287,-4.409 4.045,-4.409 1.319,0 2.512,-0.15 3.694,0.537 1.238,0.72 2.011,2.349 2.227,3.699 h 0.74 l -0.266,-5.339 c -0.504,0.03 -1.036,0.059 -1.539,0.118 -5.089,-0.088 -10.41,-0.088 -15.499,-0.118 v 0.782 c 0.946,0 2.262,0.303 2.646,1.31 C 0.102,-10.974 0,-9.087 0,-8.141 Z" /></g><g
           transform="translate(79.6284,92.2686)"
           id="g88"><path
             id="path90"
             style="fill:#231f20;fill-opacity:1;fill-rule:nonzero;stroke:none"
             d="M 0,0 C 0,0.947 -0.102,3.036 -0.396,3.834 -0.782,4.841 -1.894,4.942 -2.84,4.942 v 0.782 c 1.42,-0.03 3.014,-0.089 4.433,-0.119 1.51,0.03 3.294,0.089 4.802,0.119 V 4.942 C 5.448,4.942 4.313,4.966 3.93,3.959 3.633,3.16 3.757,0.947 3.757,0 v -8.352 c 0,-3.787 0.288,-4.41 4.045,-4.41 1.32,0 2.513,-0.149 3.695,0.538 1.238,0.72 2.01,2.349 2.227,3.699 h 0.739 l -0.265,-5.339 c -0.503,0.029 -1.036,0.059 -1.539,0.118 -5.089,-0.089 -10.41,-0.089 -15.499,-0.118 v 0.782 c 0.946,0 2.261,0.305 2.645,1.31 C 0.102,-10.974 0,-9.088 0,-8.141 Z" /></g><g
           transform="translate(98.1387,92.2686)"
           id="g92"><path
             id="path94"
             style="fill:#231f20;fill-opacity:1;fill-rule:nonzero;stroke:none"
             d="M 0,0 C 0,0.947 -0.102,3.036 -0.397,3.834 -0.782,4.841 -1.894,4.942 -2.84,4.942 V 5.724 C -1.42,5.694 0.174,5.635 1.594,5.605 3.103,5.635 4.887,5.694 6.396,5.724 V 4.942 C 5.448,4.942 4.314,4.966 3.93,3.959 3.633,3.16 3.757,0.947 3.757,0 v -8.352 c 0,-3.787 0.288,-4.41 4.046,-4.41 1.319,0 2.511,-0.149 3.694,0.538 1.238,0.72 2.01,2.349 2.228,3.699 h 0.739 l -0.266,-5.339 c -0.504,0.029 -1.036,0.059 -1.54,0.118 C 7.57,-13.835 2.249,-13.835 -2.84,-13.864 v 0.782 c 0.946,0 2.261,0.305 2.645,1.31 C 0.102,-10.974 0,-9.088 0,-8.141 Z" /></g><g
           transform="translate(60.1421,87.9268)"
           id="g96"><path
             id="path98"
             style="fill:#231f20;fill-opacity:1;fill-rule:nonzero;stroke:none"
             d="m 0,0 c 0,-4.293 1.687,-9.262 6.813,-9.262 4.797,0 6.054,5.506 6.054,9.351 0,4.156 -1.094,9.422 -6.231,9.422 C 2.176,9.511 0,5.418 0,0 m -4.509,0 c 0,6.546 5.295,10.513 11.264,10.513 5.768,0 10.824,-4.423 10.824,-10.306 0,-6.065 -5.068,-10.368 -11.044,-10.368 -5.91,0 -11.044,3.862 -11.044,10.161" /></g><g
           transform="translate(147.582,92.3848)"
           id="g100"><path
             id="path102"
             style="fill:#231f20;fill-opacity:1;fill-rule:nonzero;stroke:none"
             d="m 0,0 h -0.927 c -0.704,3.777 -2.938,5.305 -5.799,5.305 -5.253,0 -6.606,-5.241 -6.606,-9.799 0,-3.851 1.413,-8.787 6.138,-8.787 2.959,0 4.636,1.39 4.636,4.438 0,1.982 -0.74,2.367 -2.544,2.515 v 0.782 h 8.564 v -0.782 c -1.599,0.03 -2.039,-0.77 -2.039,-2.248 v -3.34 c -2.159,0 -2.641,-0.338 -4.475,-1.344 -1.509,-0.769 -2.96,-1.124 -4.645,-1.124 -6.029,0 -10.145,3.81 -10.145,9.95 0,6.341 4.374,10.826 10.559,10.826 2.189,0 4.176,-0.432 5.951,-1.763 l 0.621,1.23 h 0.833 z" /></g><g
           transform="translate(22.3872,63.1504)"
           id="g104"><path
             id="path106"
             style="fill:#231f20;fill-opacity:1;fill-rule:nonzero;stroke:none"
             d="m 0,0 c 0,-3.571 1.377,-7.496 5.336,-7.496 4.075,0 5.048,4.306 5.048,7.568 0,3.498 -1.235,7.544 -5.192,7.544 C 1.05,7.616 0,3.099 0,0 m -3.703,0 c 0,5.306 4.416,8.363 8.992,8.363 4.573,0 8.9,-3.454 8.9,-8.195 0,-5.238 -4.3,-8.412 -8.997,-8.412 -4.669,0 -8.895,3.431 -8.895,8.244" /></g><g
           transform="translate(114.7539,63.1504)"
           id="g108"><path
             id="path110"
             style="fill:#231f20;fill-opacity:1;fill-rule:nonzero;stroke:none"
             d="m 0,0 c 0,-3.571 1.376,-7.496 5.336,-7.496 4.074,0 5.048,4.306 5.048,7.568 0,3.498 -1.236,7.544 -5.193,7.544 C 1.049,7.616 0,3.099 0,0 m -3.703,0 c 0,5.306 4.416,8.363 8.991,8.363 4.574,0 8.9,-3.454 8.9,-8.195 0,-5.238 -4.299,-8.412 -8.997,-8.412 -4.669,0 -8.894,3.431 -8.894,8.244" /></g><g
           transform="translate(48.6123,67.3398)"
           id="g112"><path
             id="path114"
             style="fill:#231f20;fill-opacity:1;fill-rule:nonzero;stroke:none"
             d="m 0,0 h -0.551 c -0.287,1.03 -0.527,2.036 -1.604,2.49 -1.03,0.455 -2.091,0.432 -3.24,0.432 -1.916,0 -1.844,0.167 -1.892,-1.342 v -5.161 c 2.32,-0.102 3.2,0.455 3.701,2.694 h 0.753 c -0.024,-1.077 -0.048,-2.178 -0.096,-3.256 0.048,-0.982 0.072,-1.987 0.096,-2.969 h -0.753 c -0.364,2.725 -1.115,2.561 -3.701,2.561 v -2.915 c 0,-0.743 -0.101,-2.21 0.139,-2.857 0.358,-0.958 1.532,-1.071 2.37,-1.118 v -0.653 c -1.221,0.025 -2.669,0.072 -3.89,0.096 -1.221,-0.024 -2.723,-0.071 -3.992,-0.096 v 0.653 c 0.766,0 1.849,0.1 2.161,0.915 0.239,0.647 0.138,2.317 0.138,3.084 v 6.55 c 0,0.767 0.101,2.437 -0.138,3.084 -0.312,0.815 -1.395,0.915 -2.161,0.915 V 3.76 c 1.46,-0.025 3.177,-0.072 4.59,-0.096 2.563,0.024 5.125,0.071 7.687,0.096 z" /></g><g
           transform="translate(64.4268,66.4326)"
           id="g116"><path
             id="path118"
             style="fill:#231f20;fill-opacity:1;fill-rule:nonzero;stroke:none"
             d="M 0,0 -1.733,-5.894 C -2.379,-7.81 -3.05,-9.702 -3.696,-11.617 H -4.713 L -8.904,1.165 c -0.191,0.551 -0.425,1.718 -0.784,2.126 -0.408,0.551 -0.929,0.675 -1.623,0.725 v 0.651 c 1.15,-0.024 2.298,-0.072 3.448,-0.096 1.174,0.024 2.573,0.072 3.747,0.096 V 4.016 C -4.882,3.943 -6.17,3.943 -6.17,2.841 c 0,-0.551 0.652,-2.322 0.82,-2.921 l 2.215,-6.964 3.6,11.711 h 1.07 l 3.819,-11.289 1.379,4.044 c 0.311,1.054 1.269,4.054 1.269,4.989 0,1.485 -0.659,1.485 -1.856,1.605 V 4.667 C 7.007,4.643 7.87,4.595 8.732,4.571 9.57,4.595 10.384,4.643 11.222,4.667 V 4.016 C 9.45,4.062 9.115,2.195 8.732,0.854 L 4.983,-11.617 H 3.74 Z" /></g><g
           transform="translate(77.7432,66.4482)"
           id="g120"><path
             id="path122"
             style="fill:#231f20;fill-opacity:1;fill-rule:nonzero;stroke:none"
             d="m 0,0 c 0,0.767 0,2.539 -0.239,3.186 -0.312,0.813 -1.294,0.813 -2.06,0.813 V 4.65 C -1.15,4.627 0.304,4.579 1.454,4.556 2.675,4.579 3.973,4.627 5.17,4.65 V 3.999 C 4.405,3.999 3.422,3.898 3.111,3.084 2.872,2.437 3.075,0.767 3.075,0 v -6.551 c 0,-0.766 -0.102,-2.335 0.138,-2.982 0.311,-0.814 1.394,-1.017 2.161,-1.017 v -0.651 c -1.125,0.023 -2.603,0.07 -3.753,0.095 -1.197,-0.025 -2.723,-0.072 -3.92,-0.095 v 0.651 c 0.766,0 1.85,0.203 2.161,1.017 C 0.102,-8.886 0,-7.317 0,-6.551 Z" /></g><g
           transform="translate(83.7588,60.084)"
           id="g124"><path
             id="path126"
             style="fill:#231f20;fill-opacity:1;fill-rule:nonzero;stroke:none"
             d="m 0,0 h 0.754 c 0.478,-2.42 1.772,-4.354 4.525,-4.354 1.868,0 3.222,0.953 3.222,2.893 0,2.006 -2.15,2.94 -3.64,3.532 -2.178,0.839 -4.603,2.192 -4.603,4.921 0,2.73 2.435,4.412 5.046,4.412 1.317,0 2.437,-0.353 3.514,-1.12 l 0.551,0.935 H 9.834 L 10.056,6.771 H 9.403 c -0.55,1.989 -1.574,3.785 -3.897,3.785 -1.532,0 -2.7,-0.881 -2.7,-2.438 0,-1.892 1.828,-2.174 3.285,-2.857 3.144,-1.474 5.167,-2.425 5.167,-5.716 0,-2.944 -2.375,-4.646 -6.026,-4.646 -1.629,0 -2.796,0.276 -4.089,1.234 L 0.669,-4.67 H 0 Z" /></g><g
           transform="translate(158.5254,66.4482)"
           id="g128"><path
             id="path130"
             style="fill:#231f20;fill-opacity:1;fill-rule:nonzero;stroke:none"
             d="m 0,0 c 0,0.767 0,2.539 -0.239,3.186 -0.312,0.813 -1.293,0.813 -2.06,0.813 V 4.65 C -1.149,4.627 0.305,4.579 1.453,4.556 2.675,4.579 3.974,4.627 5.171,4.65 V 3.999 C 4.404,3.999 3.424,3.898 3.111,3.084 2.872,2.437 3.075,0.767 3.075,0 v -6.551 c 0,-0.766 -0.101,-2.335 0.138,-2.982 0.311,-0.814 1.394,-1.017 2.161,-1.017 v -0.651 c -1.125,0.023 -2.603,0.07 -3.752,0.095 -1.197,-0.025 -2.724,-0.072 -3.921,-0.095 v 0.651 c 0.767,0 1.85,0.203 2.161,1.017 C 0.102,-8.886 0,-7.317 0,-6.551 Z" /></g><g
           transform="translate(145.0361,60.084)"
           id="g132"><path
             id="path134"
             style="fill:#231f20;fill-opacity:1;fill-rule:nonzero;stroke:none"
             d="m 0,0 h 0.754 c 0.478,-2.42 1.771,-4.354 4.525,-4.354 1.868,0 3.222,0.953 3.222,2.893 0,2.006 -2.15,2.94 -3.64,3.532 -2.178,0.839 -4.603,2.192 -4.603,4.921 0,2.73 2.435,4.412 5.046,4.412 1.316,0 2.436,-0.353 3.514,-1.12 l 0.55,0.935 H 9.835 L 10.056,6.771 H 9.403 c -0.55,1.989 -1.574,3.785 -3.896,3.785 -1.533,0 -2.7,-0.881 -2.7,-2.438 0,-1.892 1.828,-2.174 3.285,-2.857 3.142,-1.474 5.167,-2.425 5.167,-5.716 0,-2.944 -2.377,-4.646 -6.027,-4.646 -1.628,0 -2.795,0.276 -4.089,1.234 L 0.669,-4.67 H 0 Z" /></g><g
           transform="translate(109.0732,71.1289)"
           id="g136"><path
             id="path138"
             style="fill:#231f20;fill-opacity:1;fill-rule:nonzero;stroke:none"
             d="M 0,0 H 0.562 L 0.754,-4.616 H 0.203 c -0.995,2.571 -1.489,4.221 -4.951,4.221 -4.052,0 -5.073,-4.183 -5.073,-7.729 0,-3.099 1.329,-7.167 5.121,-7.167 3.352,0 4.471,2.395 5.19,5.268 h 0.634 v -5.345 H 0.61 l -0.575,1.119 c -1.604,-1.269 -3.131,-1.897 -5.19,-1.897 -4.862,0 -8.369,3.137 -8.369,8.022 0,5.19 3.394,8.585 8.585,8.585 1.962,0 2.802,-0.354 4.455,-1.384 z" /></g><g
           transform="translate(130.2607,69.0107)"
           id="g140"><path
             id="path142"
             style="fill:#231f20;fill-opacity:1;fill-rule:nonzero;stroke:none"
             d="M 0,0 C -0.743,1.054 -1.217,1.413 -2.51,1.437 V 2.088 C -1.743,2.064 -0.798,2.017 -0.032,1.993 0.591,2.017 1.44,2.064 2.164,2.088 l 9.747,-11.724 v 5.948 c 0,1.03 0,2.706 -0.216,3.688 -0.287,1.341 -0.729,1.244 -1.927,1.437 v 0.651 c 0.885,-0.024 1.747,-0.071 2.633,-0.095 0.839,0.024 1.653,0.071 2.538,0.095 V 1.437 C 14.054,1.341 13.432,1.413 13.12,0.383 12.881,-0.383 12.833,-2.85 12.833,-3.809 v -10.218 h -1.124 c -0.527,0.645 -1.257,1.519 -1.783,2.189 L 0.921,-0.993 v -7.642 c 0,-0.886 -0.041,-2.449 0.257,-3.293 0.34,-0.961 1.299,-1.089 2.185,-1.184 v -0.653 c -0.91,0.026 -1.946,0.072 -2.855,0.096 -0.886,-0.024 -1.873,-0.07 -2.76,-0.096 v 0.653 c 0.935,0.095 2.02,0.329 2.161,1.376 C 0.035,-10.803 0,-9.567 0,-8.635 Z" /></g><g
           transform="translate(166.8535,69.0107)"
           id="g144"><path
             id="path146"
             style="fill:#231f20;fill-opacity:1;fill-rule:nonzero;stroke:none"
             d="M 0,0 C -0.741,1.054 -1.215,1.413 -2.509,1.437 V 2.088 C -1.742,2.064 -0.798,2.017 -0.031,1.993 0.592,2.017 1.44,2.064 2.165,2.088 l 9.747,-11.724 v 5.948 c 0,1.03 0,2.706 -0.216,3.688 -0.287,1.341 -0.73,1.244 -1.928,1.437 v 0.651 c 0.886,-0.024 1.749,-0.071 2.634,-0.095 0.838,0.024 1.653,0.071 2.538,0.095 V 1.437 C 14.055,1.341 13.433,1.413 13.121,0.383 12.882,-0.383 12.834,-2.85 12.834,-3.809 V -14.027 H 11.71 c -0.527,0.645 -1.257,1.519 -1.783,2.189 L 0.921,-0.993 v -7.642 c 0,-0.886 -0.04,-2.449 0.258,-3.293 0.34,-0.961 1.299,-1.089 2.184,-1.184 v -0.653 c -0.909,0.026 -1.944,0.072 -2.854,0.096 -0.887,-0.024 -1.874,-0.07 -2.76,-0.096 v 0.653 c 0.934,0.095 2.02,0.329 2.16,1.376 C 0.036,-10.803 0,-9.567 0,-8.635 Z" /></g><g
           transform="translate(61.2251,110.209)"
           id="g148"><path
             id="path150"
             style="fill:#231f20;fill-opacity:1;fill-rule:nonzero;stroke:none"
             d="m 0,0 c 0,-2.579 -0.213,-3.538 2.981,-3.804 v -1.013 c -1.832,0.036 -3.558,0.106 -5.284,0.141 -1.761,-0.035 -3.457,-0.105 -5.218,-0.141 v 1.013 c 2.725,0.227 3.082,0.982 3.082,3.804 v 13.837 h -0.07 L -8.322,5.125 c -1.48,-3.382 -2.823,-6.56 -4.302,-9.942 h -0.859 l -8.154,18.553 h -0.071 V 0.528 c 0,-2.55 0.515,-4.201 3.179,-4.332 v -1.013 c -1.303,0.036 -2.606,0.106 -3.909,0.141 -1.233,-0.035 -2.466,-0.105 -3.699,-0.141 v 1.013 c 2.678,0 3.17,1.62 3.17,3.204 v 14.601 c 0,0.916 -0.141,1.832 -0.317,2.289 -0.457,1.198 -2.104,1.198 -3.232,1.198 v 1.013 c 1.198,-0.07 2.867,-0.106 4.065,-0.141 1.092,0.035 2.452,0.071 3.544,0.141 l 7.344,-17.122 7.335,17.122 c 1.093,-0.07 2.625,-0.106 3.717,-0.141 1.127,0.035 2.659,0.071 3.893,0.141 V 17.554 C 2.255,17.554 0.881,17.417 0.353,16.255 0,15.481 0,13.75 0,12.447 Z" /></g><g
           transform="translate(52.9653,101.8296)"
           id="g152"><path
             id="path154"
             style="fill:#231f20;fill-opacity:1;fill-rule:nonzero;stroke:none"
             d="M 0,0 H 0.934 L 1.215,-7.042 H 0.304 c -0.709,4.404 -3.879,6.341 -7.331,6.354 -6.657,0.025 -7.7,-7.65 -7.7,-11.619 0,-5.155 2.122,-10.787 8.075,-10.787 4.69,0 6.476,3.835 7.48,7.85 h 0.939 v -8.018 H 1.004 l -0.845,1.797 c -2.123,-1.68 -5.056,-2.947 -7.683,-2.947 -6.822,0 -12.62,3.839 -12.62,12.105 0,7.995 5.497,12.835 12.835,12.835 2.643,0 4.654,-0.88 6.746,-2.184 z" /></g><g
           transform="translate(100.6426,140.8057)"
           id="g156"><path
             id="path158"
             style="fill:#ffffff;fill-opacity:1;fill-rule:nonzero;stroke:none"
             d="M 0,0 0.783,36.583 1.441,37.197 1.438,38.386 0,37.638 l -1.438,0.748 -0.003,-1.189 0.657,-0.614 z" /></g><g
           transform="translate(100.6426,140.8057)"
           id="g160"><path
             id="path162"
             style="fill:#ffffff;fill-opacity:1;fill-rule:nonzero;stroke:none"
             d="m 0,0 0.211,-0.004 0.782,36.494 0.592,0.552 c 0.043,0.041 0.067,0.097 0.067,0.156 l -0.003,1.189 c 0,0.073 -0.039,0.142 -0.101,0.18 -0.064,0.037 -0.142,0.04 -0.207,0.006 L 0,37.876 -1.341,38.573 c -0.065,0.034 -0.144,0.031 -0.206,-0.006 -0.063,-0.038 -0.102,-0.107 -0.102,-0.18 l -0.003,-1.189 c 0,-0.059 0.024,-0.115 0.067,-0.156 l 0.592,-0.552 0.782,-36.494 c 0.002,-0.115 0.097,-0.207 0.211,-0.207 0.115,0 0.209,0.092 0.211,0.207 L 0,0 0.211,0.005 -0.572,36.588 c -0.001,0.058 -0.026,0.111 -0.068,0.15 l -0.589,0.551 0.001,0.75 1.13,-0.588 c 0.062,-0.033 0.134,-0.033 0.196,0 l 1.13,0.588 0.001,-0.75 L 0.64,36.738 C 0.598,36.699 0.573,36.646 0.572,36.588 L -0.211,0.005 0,0 0.211,0.005 Z" /></g></g></g><g
       transform="translate(18.6846,40.7539)"
       id="g164"><path
         id="path166"
         style="fill:#231f20;fill-opacity:1;fill-rule:nonzero;stroke:none"
         d="M 0,0 H 163.109 V 1.225 H 0" /></g><g
       id="g168"><g
         clip-path="url(#clipPath174)"
         id="g170"><g
           transform="translate(26.4697,17.8672)"
           id="g176"><path
             id="path178"
             style="fill:#231f20;fill-opacity:1;fill-rule:nonzero;stroke:none"
             d="m 0,0 c 0.157,-0.37 0.242,-0.582 0.252,-0.632 0.035,-0.107 0.052,-0.211 0.052,-0.311 0,-0.169 -0.062,-0.298 -0.186,-0.388 -0.18,-0.124 -0.492,-0.186 -0.935,-0.186 h -0.228 v -0.311 h 5.527 v 0.311 C 4.134,-1.488 3.864,-1.388 3.673,-1.213 3.421,-0.982 3.098,-0.425 2.705,0.464 l -4.121,9.368 h -0.16 L -5.662,0.716 c -0.387,-0.87 -0.713,-1.445 -0.977,-1.723 -0.264,-0.278 -0.601,-0.448 -1.011,-0.51 v -0.311 h 3.8 v 0.311 c -0.596,0.045 -0.969,0.113 -1.121,0.203 -0.258,0.151 -0.387,0.387 -0.387,0.708 0,0.241 0.078,0.547 0.235,0.918 l 0.481,1.112 h 4.036 z m -4.348,2.048 1.753,3.933 1.702,-3.933 z M 4.92,9.597 V 9.285 C 5.269,9.273 5.536,9.22 5.721,9.124 5.906,9.028 6.12,8.83 6.361,8.526 L 6.605,8.223 V 0.16 c 0,-0.606 -0.123,-1.036 -0.37,-1.289 C 5.988,-1.382 5.549,-1.511 4.92,-1.517 v -0.311 h 4.053 v 0.311 H 8.704 c -0.388,0 -0.732,0.116 -1.033,0.346 -0.3,0.23 -0.45,0.674 -0.45,1.331 v 7.263 l 7.726,-9.513 h 0.286 v 9.513 c 0,0.539 0.046,0.92 0.139,1.141 0.093,0.222 0.222,0.382 0.387,0.48 0.166,0.099 0.491,0.179 0.973,0.241 V 9.597 H 12.958 V 9.285 c 0.635,0.011 1.087,-0.146 1.356,-0.472 0.197,-0.242 0.295,-0.705 0.295,-1.39 V 2.511 L 8.973,9.597 Z M 23.018,8.939 c 0.865,0 1.455,-0.05 1.769,-0.151 0.54,-0.169 0.957,-0.434 1.252,-0.793 0.294,-0.358 0.523,-0.951 0.686,-1.777 h 0.32 V 9.597 H 17.482 V 9.285 h 0.38 c 0.37,0 0.662,-0.079 0.876,-0.236 C 18.89,8.942 18.993,8.79 19.05,8.594 19.078,8.476 19.092,8.158 19.092,7.642 V 0.126 c 0,-0.572 -0.031,-0.927 -0.093,-1.061 -0.079,-0.191 -0.191,-0.326 -0.337,-0.405 -0.202,-0.118 -0.469,-0.177 -0.8,-0.177 h -0.38 v -0.311 h 9.875 l 0.514,3.631 H 27.559 C 27.278,0.792 26.816,0.039 26.173,-0.455 25.53,-0.949 24.675,-1.196 23.608,-1.196 h -0.683 c -0.325,0 -0.561,0.045 -0.707,0.134 -0.147,0.09 -0.246,0.206 -0.3,0.346 -0.053,0.141 -0.08,0.525 -0.08,1.153 v 3.219 c 0.545,0 0.961,-0.071 1.247,-0.215 0.287,-0.143 0.538,-0.421 0.754,-0.837 0.217,-0.416 0.358,-0.95 0.426,-1.601 h 0.32 v 5.981 h -0.32 C 24.175,6.098 23.967,5.426 23.641,4.971 23.315,4.516 22.791,4.288 22.066,4.288 h -0.228 v 4.651 z m 13.48,0.918 C 36.425,9.515 36.347,9.299 36.262,9.209 36.178,9.119 36.063,9.074 35.917,9.074 c -0.151,0 -0.417,0.091 -0.796,0.274 -0.379,0.182 -0.701,0.307 -0.965,0.375 -0.348,0.09 -0.707,0.134 -1.078,0.134 -1.017,0 -1.859,-0.319 -2.528,-0.96 -0.669,-0.64 -1.003,-1.416 -1.003,-2.325 0,-0.534 0.122,-1.022 0.367,-1.467 0.244,-0.443 0.594,-0.844 1.049,-1.204 0.455,-0.359 1.202,-0.796 2.241,-1.306 0.741,-0.366 1.258,-0.661 1.55,-0.889 0.292,-0.227 0.51,-0.468 0.653,-0.721 0.143,-0.252 0.215,-0.513 0.215,-0.783 0,-0.455 -0.186,-0.853 -0.56,-1.196 -0.374,-0.343 -0.875,-0.515 -1.504,-0.515 -0.814,0 -1.575,0.32 -2.279,0.957 -0.705,0.638 -1.181,1.564 -1.428,2.777 H 29.539 V -2.09 h 0.312 c 0.101,0.231 0.232,0.403 0.396,0.515 0.163,0.112 0.317,0.168 0.463,0.168 0.174,0 0.396,-0.056 0.666,-0.168 0.483,-0.202 0.884,-0.341 1.205,-0.413 0.32,-0.074 0.659,-0.11 1.019,-0.11 1.146,0 2.091,0.344 2.835,1.032 0.744,0.688 1.116,1.509 1.116,2.464 0,0.753 -0.23,1.421 -0.691,2.005 -0.465,0.584 -1.367,1.205 -2.704,1.863 -0.955,0.472 -1.564,0.8 -1.828,0.985 -0.36,0.259 -0.621,0.52 -0.784,0.784 -0.118,0.196 -0.177,0.421 -0.177,0.674 0,0.399 0.168,0.751 0.502,1.058 0.334,0.305 0.788,0.459 1.36,0.459 0.742,0 1.431,-0.291 2.069,-0.872 0.637,-0.582 1.037,-1.35 1.2,-2.304 h 0.346 l -0.093,3.807 z m 2.368,-0.26 V 6.504 h 0.32 c 0.129,0.843 0.438,1.491 0.927,1.946 0.348,0.326 0.907,0.489 1.677,0.489 h 0.825 V 0.126 c 0,-0.572 -0.031,-0.927 -0.093,-1.061 -0.084,-0.191 -0.199,-0.326 -0.345,-0.405 -0.202,-0.118 -0.469,-0.177 -0.801,-0.177 h -0.379 v -0.311 h 5.982 v 0.311 H 46.6 c -0.326,0 -0.582,0.055 -0.77,0.164 -0.189,0.11 -0.315,0.238 -0.38,0.384 -0.065,0.146 -0.097,0.511 -0.097,1.095 v 8.813 h 0.851 c 0.534,0 0.907,-0.05 1.121,-0.151 0.382,-0.185 0.682,-0.434 0.901,-0.746 0.219,-0.312 0.419,-0.824 0.598,-1.538 h 0.304 V 9.597 Z M 58.505,3.665 V 0.126 c 0,-0.572 -0.031,-0.927 -0.092,-1.061 -0.085,-0.191 -0.2,-0.326 -0.346,-0.405 -0.196,-0.118 -0.463,-0.177 -0.8,-0.177 h -0.371 v -0.311 h 5.965 v 0.311 H 62.49 c -0.32,0 -0.575,0.055 -0.766,0.164 -0.192,0.11 -0.318,0.238 -0.38,0.384 -0.062,0.146 -0.093,0.511 -0.093,1.095 v 7.516 c 0,0.573 0.031,0.926 0.093,1.061 0.085,0.192 0.2,0.325 0.346,0.404 0.196,0.119 0.463,0.178 0.8,0.178 h 0.371 V 9.597 H 56.896 V 9.285 h 0.371 c 0.32,0 0.575,-0.056 0.766,-0.165 0.191,-0.109 0.318,-0.237 0.38,-0.383 0.061,-0.146 0.092,-0.511 0.092,-1.095 V 4.406 h -4.036 v 3.236 c 0,0.573 0.031,0.926 0.093,1.061 0.084,0.192 0.199,0.325 0.345,0.404 0.203,0.119 0.469,0.178 0.801,0.178 h 0.379 V 9.597 H 50.114 V 9.285 h 0.379 c 0.32,0 0.574,-0.056 0.762,-0.165 0.188,-0.109 0.313,-0.237 0.375,-0.383 0.062,-0.146 0.093,-0.511 0.093,-1.095 V 0.126 c 0,-0.572 -0.031,-0.927 -0.093,-1.061 -0.079,-0.191 -0.191,-0.326 -0.337,-0.405 -0.202,-0.118 -0.469,-0.177 -0.8,-0.177 h -0.379 v -0.311 h 5.973 v 0.311 h -0.379 c -0.32,0 -0.575,0.055 -0.763,0.164 -0.188,0.11 -0.314,0.238 -0.379,0.384 -0.065,0.146 -0.097,0.511 -0.097,1.095 v 3.539 z m 10.549,5.274 c 0.864,0 1.454,-0.05 1.769,-0.151 0.539,-0.169 0.956,-0.434 1.251,-0.793 0.295,-0.358 0.524,-0.951 0.687,-1.777 h 0.32 V 9.597 H 63.518 V 9.285 h 0.379 c 0.371,0 0.663,-0.079 0.877,-0.236 0.151,-0.107 0.255,-0.259 0.311,-0.455 0.028,-0.118 0.042,-0.436 0.042,-0.952 V 0.126 c 0,-0.572 -0.03,-0.927 -0.092,-1.061 -0.079,-0.191 -0.191,-0.326 -0.337,-0.405 -0.202,-0.118 -0.469,-0.177 -0.801,-0.177 h -0.379 v -0.311 h 9.874 l 0.514,3.631 H 73.595 C 73.314,0.792 72.852,0.039 72.209,-0.455 71.565,-0.949 70.71,-1.196 69.644,-1.196 h -0.683 c -0.326,0 -0.562,0.045 -0.708,0.134 -0.146,0.09 -0.246,0.206 -0.299,0.346 -0.054,0.141 -0.08,0.525 -0.08,1.153 v 3.219 c 0.545,0 0.96,-0.071 1.247,-0.215 0.287,-0.143 0.538,-0.421 0.754,-0.837 0.216,-0.416 0.358,-0.95 0.426,-1.601 h 0.32 v 5.981 h -0.32 C 70.21,6.098 70.003,5.426 69.677,4.971 69.351,4.516 68.826,4.288 68.102,4.288 h -0.228 v 4.651 z m 13.48,0.918 C 82.462,9.515 82.383,9.299 82.298,9.209 82.214,9.119 82.1,9.074 81.953,9.074 c -0.151,0 -0.417,0.091 -0.796,0.274 -0.38,0.182 -0.701,0.307 -0.966,0.375 -0.347,0.09 -0.707,0.134 -1.078,0.134 -1.016,0 -1.859,-0.319 -2.527,-0.96 -0.668,-0.64 -1.002,-1.416 -1.002,-2.325 0,-0.534 0.121,-1.022 0.366,-1.467 0.244,-0.443 0.594,-0.844 1.049,-1.204 0.455,-0.359 1.202,-0.796 2.241,-1.306 0.741,-0.366 1.258,-0.661 1.55,-0.889 0.292,-0.227 0.51,-0.468 0.653,-0.721 0.143,-0.252 0.215,-0.513 0.215,-0.783 0,-0.455 -0.186,-0.853 -0.56,-1.196 -0.374,-0.343 -0.875,-0.515 -1.504,-0.515 -0.815,0 -1.574,0.32 -2.28,0.957 -0.705,0.638 -1.18,1.564 -1.427,2.777 H 75.575 V -2.09 h 0.312 c 0.1,0.231 0.233,0.403 0.395,0.515 0.163,0.112 0.318,0.168 0.464,0.168 0.174,0 0.397,-0.056 0.665,-0.168 0.484,-0.202 0.885,-0.341 1.205,-0.413 0.321,-0.074 0.66,-0.11 1.02,-0.11 1.146,0 2.091,0.344 2.835,1.032 0.745,0.688 1.116,1.509 1.116,2.464 0,0.753 -0.23,1.421 -0.691,2.005 -0.465,0.584 -1.368,1.205 -2.705,1.863 -0.954,0.472 -1.563,0.8 -1.827,0.985 -0.36,0.259 -0.621,0.52 -0.784,0.784 -0.118,0.196 -0.177,0.421 -0.177,0.674 0,0.399 0.167,0.751 0.501,1.058 0.335,0.305 0.788,0.459 1.361,0.459 0.742,0 1.431,-0.291 2.069,-0.872 0.638,-0.582 1.037,-1.35 1.2,-2.304 h 0.346 l -0.093,3.807 z m 7.684,-11.374 c -0.321,0 -0.574,0.055 -0.763,0.164 -0.188,0.11 -0.314,0.238 -0.379,0.384 -0.064,0.146 -0.097,0.511 -0.097,1.095 v 7.516 c 0,0.573 0.031,0.926 0.093,1.061 0.084,0.192 0.199,0.325 0.345,0.404 0.203,0.119 0.47,0.178 0.801,0.178 h 0.379 V 9.597 H 84.624 V 9.285 h 0.379 c 0.319,0 0.574,-0.056 0.762,-0.165 0.188,-0.109 0.313,-0.237 0.375,-0.383 0.061,-0.146 0.092,-0.511 0.092,-1.095 V 0.126 c 0,-0.572 -0.031,-0.927 -0.092,-1.061 -0.079,-0.191 -0.191,-0.326 -0.337,-0.405 -0.202,-0.118 -0.469,-0.177 -0.8,-0.177 h -0.379 v -0.311 h 5.973 v 0.311 z m 3.18,9.677 C 92.244,7.028 91.667,5.614 91.667,3.918 91.667,2.407 92.11,1.101 92.999,0 c 1.123,-1.393 2.713,-2.09 4.769,-2.09 2.049,0 3.635,0.731 4.759,2.192 0.849,1.1 1.273,2.375 1.273,3.824 0,1.696 -0.569,3.109 -1.706,4.238 -1.138,1.129 -2.616,1.66 -4.436,1.593 -1.685,0.067 -3.105,-0.465 -4.26,-1.597 m 5.865,0.594 c 0.435,-0.31 0.793,-0.839 1.074,-1.588 0.28,-0.75 0.421,-1.881 0.421,-3.392 0,-1.269 -0.138,-2.298 -0.412,-3.087 -0.276,-0.79 -0.66,-1.364 -1.156,-1.723 -0.386,-0.281 -0.87,-0.422 -1.448,-0.422 -0.859,0 -1.528,0.326 -2.006,0.979 -0.684,0.931 -1.027,2.372 -1.027,4.321 0,1.639 0.222,2.898 0.665,3.774 0.545,1.068 1.34,1.601 2.385,1.601 0.567,0 1.068,-0.154 1.504,-0.463 m 15.7,-6.572 c -0.265,-0.899 -0.544,-1.578 -0.838,-2.039 -0.295,-0.46 -0.645,-0.797 -1.05,-1.011 -0.404,-0.213 -0.909,-0.319 -1.516,-0.319 h -0.952 c -0.54,0 -0.879,0.024 -1.019,0.075 -0.197,0.079 -0.329,0.198 -0.397,0.358 -0.067,0.16 -0.101,0.532 -0.101,1.116 v 7.28 c 0,0.573 0.031,0.926 0.093,1.061 0.084,0.192 0.2,0.325 0.345,0.404 0.202,0.119 0.469,0.178 0.801,0.178 h 0.497 v 0.312 h -6.092 V 9.285 h 0.38 c 0.32,0 0.574,-0.056 0.762,-0.165 0.187,-0.109 0.312,-0.237 0.375,-0.383 0.062,-0.146 0.093,-0.511 0.093,-1.095 V 0.126 c 0,-0.572 -0.031,-0.927 -0.093,-1.061 -0.079,-0.191 -0.191,-0.326 -0.337,-0.405 -0.202,-0.118 -0.469,-0.177 -0.8,-0.177 h -0.38 v -0.311 h 10.145 l 0.43,4.01 z m 3.365,5.978 c -1.154,-1.132 -1.731,-2.546 -1.731,-4.242 0,-1.511 0.444,-2.817 1.332,-3.918 1.123,-1.393 2.713,-2.09 4.768,-2.09 2.05,0 3.637,0.731 4.76,2.192 0.849,1.1 1.272,2.375 1.272,3.824 0,1.696 -0.568,3.109 -1.706,4.238 -1.137,1.129 -2.616,1.66 -4.435,1.593 -1.686,0.067 -3.106,-0.465 -4.26,-1.597 m 5.864,0.594 c 0.436,-0.31 0.793,-0.839 1.075,-1.588 0.28,-0.75 0.421,-1.881 0.421,-3.392 0,-1.269 -0.138,-2.298 -0.413,-3.087 -0.275,-0.79 -0.66,-1.364 -1.154,-1.723 -0.388,-0.281 -0.871,-0.422 -1.449,-0.422 -0.859,0 -1.527,0.326 -2.006,0.979 -0.685,0.931 -1.027,2.372 -1.027,4.321 0,1.639 0.221,2.898 0.665,3.774 0.545,1.068 1.34,1.601 2.384,1.601 0.568,0 1.069,-0.154 1.504,-0.463 m 16.745,1.103 c -0.112,-0.319 -0.235,-0.538 -0.37,-0.652 -0.134,-0.116 -0.281,-0.173 -0.438,-0.173 -0.102,0 -0.428,0.105 -0.982,0.316 -0.553,0.211 -0.953,0.338 -1.2,0.383 -0.455,0.09 -0.967,0.135 -1.534,0.135 -1.831,0 -3.35,-0.593 -4.558,-1.778 -1.208,-1.185 -1.811,-2.637 -1.811,-4.356 0,-0.96 0.196,-1.828 0.59,-2.603 0.308,-0.601 0.737,-1.142 1.285,-1.622 0.548,-0.481 1.179,-0.867 1.895,-1.162 0.716,-0.295 1.617,-0.443 2.701,-0.443 0.848,0 1.667,0.083 2.456,0.248 0.789,0.166 1.549,0.413 2.278,0.738 v 2.376 c 0,0.415 0.026,0.676 0.076,0.784 0.09,0.202 0.218,0.347 0.384,0.432 0.165,0.088 0.459,0.146 0.88,0.173 v 0.313 h -5.552 V 2.653 h 0.295 c 0.274,0 0.51,-0.052 0.703,-0.159 0.194,-0.107 0.321,-0.226 0.384,-0.358 0.061,-0.132 0.093,-0.423 0.093,-0.872 v -2.376 c -0.304,-0.113 -0.6,-0.198 -0.89,-0.257 -0.289,-0.06 -0.571,-0.089 -0.847,-0.089 -0.791,0 -1.475,0.194 -2.05,0.582 -0.577,0.387 -0.994,0.994 -1.251,1.819 -0.259,0.827 -0.389,1.786 -0.389,2.882 0,0.904 0.119,1.786 0.354,2.646 0.237,0.859 0.638,1.529 1.206,2.008 0.567,0.481 1.277,0.721 2.13,0.721 0.894,0 1.717,-0.286 2.469,-0.859 0.753,-0.572 1.318,-1.409 1.693,-2.511 h 0.312 v 4.027 z m 10.609,-0.26 V 9.285 c 0.511,-0.028 0.862,-0.113 1.053,-0.253 0.145,-0.101 0.218,-0.227 0.218,-0.38 0,-0.274 -0.255,-0.834 -0.766,-1.675 l -2.056,-3.447 -2.063,3.783 c -0.451,0.815 -0.675,1.323 -0.675,1.525 0,0.106 0.066,0.208 0.198,0.304 0.132,0.095 0.363,0.143 0.695,0.143 h 0.245 v 0.312 h -5.477 V 9.285 c 0.365,-0.007 0.657,-0.095 0.876,-0.265 0.219,-0.172 0.596,-0.741 1.129,-1.707 L 147.61,2.418 V 0.126 c 0,-0.572 -0.03,-0.927 -0.092,-1.061 -0.084,-0.191 -0.199,-0.326 -0.345,-0.405 -0.196,-0.118 -0.463,-0.177 -0.801,-0.177 h -0.599 v -0.311 h 6.413 v 0.311 h -0.64 c -0.304,0 -0.547,0.055 -0.73,0.164 -0.182,0.11 -0.304,0.237 -0.366,0.379 -0.062,0.144 -0.093,0.511 -0.093,1.1 V 2.89 l 2.478,4.137 c 0.606,1.05 1.05,1.694 1.331,1.929 0.202,0.168 0.491,0.278 0.867,0.329 v 0.312 z" /></g></g></g></g></svg>