<?xml version="1.0" encoding="UTF-8" standalone="no"?>
<svg
   xmlns:dc="http://purl.org/dc/elements/1.1/"
   xmlns:cc="http://creativecommons.org/ns#"
   xmlns:rdf="http://www.w3.org/1999/02/22-rdf-syntax-ns#"
   xmlns:svg="http://www.w3.org/2000/svg"
   xmlns="http://www.w3.org/2000/svg"
   viewBox="0 0 533.33331 533.33331"
   height="533.33331"
   width="533.33331"
   xml:space="preserve"
   id="svg2"
   version="1.1"><metadata
     id="metadata8"><rdf:RDF><cc:Work
         rdf:about=""><dc:format>image/svg+xml</dc:format><dc:type
           rdf:resource="http://purl.org/dc/dcmitype/StillImage" /><dc:title></dc:title></cc:Work></rdf:RDF></metadata><defs
     id="defs6"><clipPath
       id="clipPath18"
       clipPathUnits="userSpaceOnUse"><path
         id="path16"
         d="M 29.224,72.927 H 369.791 V 398.766 H 29.224 Z" /></clipPath><clipPath
       id="clipPath30"
       clipPathUnits="userSpaceOnUse"><path
         id="path28"
         d="M 29.224,100.445 H 369.791 V 371.248 H 29.224 Z" /></clipPath><clipPath
       id="clipPath42"
       clipPathUnits="userSpaceOnUse"><path
         id="path40"
         d="M 29.224,72.927 H 369.791 V 398.766 H 29.224 Z" /></clipPath><clipPath
       id="clipPath174"
       clipPathUnits="userSpaceOnUse"><path
         id="path172"
         d="M 0,400 H 400 V 0 H 0 Z" /></clipPath></defs><g
     transform="matrix(1.3333333,0,0,-1.3333333,0,533.33333)"
     id="g10"><g
       id="g12"><g
         clip-path="url(#clipPath18)"
         id="g14"><g
           transform="translate(110.314,266.9409)"
           id="g20"><path
             id="path22"
             style="fill:#006862;fill-opacity:1;fill-rule:nonzero;stroke:none"
             d="M 0,0 H 78.057 V 1.913 L 76.961,0.345 c 3.337,-2.322 7.89,-3.68 12.913,-3.686 5.023,0.006 9.574,1.364 12.912,3.686 L 101.69,1.913 V 0 h 78.058 v 3.825 h -78.66 L 100.595,3.48 C 98.049,1.693 94.194,0.478 89.874,0.483 85.553,0.478 81.696,1.694 79.152,3.48 L 78.658,3.825 H 0 Z" /></g></g></g><g
       id="g24"><g
         clip-path="url(#clipPath30)"
         id="g26"><g
           transform="translate(200.3564,272.8989)"
           id="g32"><path
             id="path34"
             style="fill:#006862;fill-opacity:1;fill-rule:nonzero;stroke:none"
             d="M 0,0 C 12.891,16.475 37.267,13.464 54.104,8.472 64.143,5.496 81.988,4.118 86.956,5.222 L 64.498,87.226 C 57.438,86.564 45.524,90.241 38.979,92.669 27.781,96.82 9.61,102.782 0,93.203 -9.612,102.782 -27.783,96.82 -38.98,92.669 -45.526,90.241 -57.44,86.564 -64.5,87.226 L -86.957,5.222 c 4.967,-1.104 22.813,0.274 32.852,3.25 C -37.269,13.464 -12.893,16.475 0,0" /></g></g></g><g
       id="g36"><g
         clip-path="url(#clipPath42)"
         id="g38"><g
           transform="translate(182.5474,360.875)"
           id="g44"><path
             id="path46"
             style="fill:#ffffff;fill-opacity:1;fill-rule:nonzero;stroke:none"
             d="m 0,0 c -7.686,-0.669 -15.598,-3.398 -21.529,-5.594 -4.532,-1.683 -11.704,-3.978 -17.922,-4.965 -0.561,-0.089 -0.944,-0.617 -0.855,-1.178 0.09,-0.562 0.618,-0.945 1.179,-0.856 6.452,1.029 13.69,3.354 18.314,5.068 5.881,2.183 13.661,4.841 20.991,5.473 0.567,0.05 0.986,0.549 0.937,1.115 C 1.066,-0.37 0.566,0.049 0,0 m -42.031,-23.966 c 4.651,0.677 9.651,1.907 13.8,3.214 1.985,0.624 3.865,1.243 5.536,1.794 6.485,2.15 14.727,4.477 22.382,4.591 0.568,0.009 1.022,0.477 1.013,1.046 -0.009,0.568 -0.476,1.022 -1.045,1.013 -8.04,-0.128 -16.435,-2.525 -22.996,-4.694 -1.669,-0.551 -3.539,-1.167 -5.509,-1.786 -4.049,-1.276 -8.969,-2.485 -13.477,-3.14 -0.563,-0.082 -0.953,-0.605 -0.871,-1.167 0.082,-0.563 0.605,-0.953 1.167,-0.871 m -2.903,-11.373 c 4.954,0.661 10.246,1.839 14.519,3.163 2.027,0.629 4.003,1.242 5.842,1.787 l 0.002,10e-4 c 6.473,1.933 14.286,3.766 21.674,3.764 0.704,0 1.404,-0.017 2.098,-0.051 0.568,-0.029 1.051,0.409 1.08,0.977 0.029,0.568 -0.409,1.051 -0.977,1.079 -0.731,0.037 -1.465,0.055 -2.201,0.055 -7.723,-0.003 -15.695,-1.893 -22.263,-3.851 l 0.002,10e-4 c -1.857,-0.551 -3.84,-1.167 -5.866,-1.795 -4.144,-1.285 -9.357,-2.446 -14.182,-3.089 -0.564,-0.075 -0.96,-0.593 -0.884,-1.157 0.075,-0.564 0.593,-0.96 1.156,-0.884 m -2.902,-11.372 c 5.257,0.645 10.842,1.772 15.238,3.112 2.069,0.631 4.143,1.242 6.154,1.783 l 10e-4,0.001 c 6.207,1.681 13.363,3.092 20.265,3.09 1.654,0 3.293,-0.08 4.901,-0.256 0.565,-0.062 1.073,0.346 1.135,0.911 0.062,0.565 -0.345,1.074 -0.911,1.136 -1.691,0.185 -3.404,0.269 -5.125,0.269 -7.18,-10e-4 -14.491,-1.455 -20.803,-3.163 l 0.002,0.001 c -2.043,-0.55 -4.138,-1.167 -6.219,-1.802 -4.241,-1.295 -9.747,-2.409 -14.888,-3.038 -0.565,-0.069 -0.966,-0.583 -0.897,-1.147 0.069,-0.565 0.583,-0.967 1.147,-0.897 m -2.9,-11.373 c 5.56,0.63 11.438,1.705 15.956,3.062 2.111,0.635 4.285,1.242 6.467,1.779 5.894,1.458 12.448,2.557 18.849,2.556 2.615,0 5.204,-0.183 7.712,-0.596 0.561,-0.093 1.091,0.287 1.184,0.848 0.092,0.561 -0.288,1.091 -0.849,1.184 -2.636,0.435 -5.336,0.624 -8.047,0.624 -6.636,-10e-4 -13.339,-1.133 -19.342,-2.616 -2.223,-0.547 -4.43,-1.164 -6.568,-1.807 -4.335,-1.305 -10.136,-2.371 -15.594,-2.988 -0.565,-0.064 -0.971,-0.573 -0.907,-1.139 0.064,-0.565 0.574,-0.971 1.139,-0.907 m -2.898,-11.373 c 5.863,0.618 12.032,1.639 16.674,3.012 7.219,2.142 15.832,3.909 24.256,3.907 3.569,0 7.102,-0.316 10.483,-1.047 0.556,-0.121 1.104,0.232 1.224,0.788 0.121,0.556 -0.232,1.104 -0.788,1.225 -3.551,0.768 -7.229,1.094 -10.919,1.094 -8.711,-10e-4 -17.491,-1.814 -24.842,-3.993 -4.436,-1.315 -10.532,-2.332 -16.304,-2.937 -0.565,-0.059 -0.976,-0.566 -0.916,-1.132 0.059,-0.565 0.566,-0.976 1.132,-0.917 m 89.073,67.405 c 7.33,-0.632 15.109,-3.29 20.99,-5.473 4.625,-1.714 11.863,-4.039 18.315,-5.068 0.561,-0.089 1.089,0.294 1.178,0.856 0.089,0.561 -0.294,1.089 -0.855,1.178 -6.218,0.987 -13.39,3.282 -17.921,4.964 C 51.214,-3.398 43.303,-0.669 35.617,0 35.05,0.049 34.551,-0.37 34.502,-0.937 c -0.049,-0.566 0.371,-1.065 0.937,-1.115 m 42.506,-19.876 c -4.508,0.655 -9.429,1.864 -13.48,3.14 -1.967,0.619 -3.839,1.235 -5.508,1.786 -6.562,2.169 -14.955,4.566 -22.994,4.694 -0.568,0.009 -1.037,-0.444 -1.046,-1.013 -0.008,-0.569 0.446,-1.037 1.014,-1.046 7.654,-0.114 15.894,-2.441 22.379,-4.591 1.673,-0.551 3.554,-1.17 5.537,-1.794 4.151,-1.307 9.151,-2.537 13.801,-3.214 0.562,-0.082 1.086,0.308 1.167,0.871 0.082,0.562 -0.308,1.085 -0.87,1.167 m 2.877,-11.37 c -4.824,0.643 -10.036,1.804 -14.182,3.089 -2.025,0.628 -4.009,1.244 -5.867,1.795 l 0.002,-10e-4 c -6.567,1.958 -14.538,3.848 -22.261,3.851 -0.736,0 -1.471,-0.018 -2.201,-0.054 -0.568,-0.029 -1.006,-0.512 -0.978,-1.08 0.03,-0.568 0.513,-1.006 1.081,-0.977 0.694,0.034 1.394,0.051 2.098,0.051 7.387,0.002 15.2,-1.831 21.672,-3.764 l 0.002,-10e-4 c 1.84,-0.545 3.816,-1.158 5.843,-1.787 4.274,-1.324 9.566,-2.502 14.518,-3.163 0.564,-0.076 1.081,0.32 1.157,0.884 0.075,0.564 -0.321,1.082 -0.884,1.157 m 2.882,-11.369 c -5.143,0.629 -10.649,1.743 -14.888,3.038 -2.082,0.635 -4.18,1.252 -6.219,1.802 -6.31,1.707 -13.623,3.161 -20.803,3.162 -1.72,0 -3.433,-0.084 -5.124,-0.269 -0.565,-0.062 -0.973,-0.571 -0.911,-1.136 0.062,-0.565 0.571,-0.973 1.136,-0.911 1.606,0.176 3.246,0.256 4.899,0.256 6.902,0.002 14.06,-1.409 20.266,-3.09 2.01,-0.542 4.087,-1.153 6.155,-1.784 4.395,-1.34 9.981,-2.467 15.238,-3.112 0.564,-0.07 1.078,0.332 1.147,0.897 0.069,0.564 -0.332,1.078 -0.896,1.147 z m 2.879,-11.371 c -5.455,0.617 -11.257,1.683 -15.594,2.988 -2.136,0.643 -4.344,1.26 -6.569,1.807 -6.001,1.483 -12.704,2.615 -19.339,2.616 -2.711,0 -5.412,-0.189 -8.048,-0.624 -0.561,-0.093 -0.941,-0.623 -0.848,-1.184 0.092,-0.561 0.622,-0.941 1.184,-0.849 2.507,0.414 5.096,0.597 7.712,0.597 6.401,10e-4 12.956,-1.098 18.846,-2.556 2.184,-0.537 4.359,-1.144 6.469,-1.779 4.518,-1.357 10.398,-2.432 15.956,-3.062 0.565,-0.064 1.075,0.342 1.14,0.907 0.063,0.566 -0.343,1.075 -0.909,1.139 m 2.882,-11.37 c -5.771,0.605 -11.867,1.622 -16.302,2.938 -7.352,2.178 -16.132,3.991 -24.842,3.992 -3.69,0 -7.367,-0.326 -10.918,-1.094 -0.557,-0.121 -0.909,-0.669 -0.789,-1.225 0.12,-0.556 0.669,-0.909 1.224,-0.788 3.38,0.731 6.914,1.047 10.483,1.047 8.424,0.002 17.037,-1.765 24.257,-3.907 4.64,-1.373 10.809,-2.394 16.672,-3.012 0.566,-0.059 1.073,0.352 1.132,0.917 0.06,0.566 -0.35,1.073 -0.917,1.132" /></g><g
           transform="translate(188.3491,365.3096)"
           id="g48"><path
             id="path50"
             style="fill:#ffffff;fill-opacity:1;fill-rule:nonzero;stroke:none"
             d="m 0,0 c -1.581,-1.544 -2.691,-3.076 -2.654,-5.699 0.05,-3.408 3.195,-6.41 7.086,-8.215 5.026,-2.327 9.586,-4.411 11.571,-5.196 3.83,-1.513 4.072,-2.336 4.094,-4.021 0.023,-1.805 -1.492,-2.5 -2.796,-2.5 -1.912,0 -3.418,0.897 -4.952,1.986 -1.519,1.078 -2.881,1.495 -4.878,1.495 -3.726,0 -8.573,-2.28 -8.531,-8.531 0.024,-3.677 2.281,-6.932 9.487,-9.684 3.531,-1.349 6.441,-2.796 7.797,-3.334 1.422,-0.564 2.695,-1.226 2.695,-3.015 0,-1.481 -1.078,-2.28 -2.525,-2.28 -1.349,0 -2.965,0.882 -4.387,1.795 -1.017,0.655 -2.06,0.975 -4.363,0.975 -2.698,0 -7.291,-1.986 -7.208,-7.257 0.048,-3.162 1.667,-5.761 5.099,-7.158 l 10.566,-4.413 c 1.373,-0.613 1.836,-1.398 1.789,-2.427 -0.049,-1.078 -0.898,-1.594 -2.009,-1.594 -0.981,0 -2.334,0.638 -3.923,1.471 -1.495,0.786 -2.844,1.374 -4.658,1.374 -3.211,0 -5.638,-2.281 -5.664,-5.714 -0.01,-1.46 0.884,-3.848 4.07,-5.391 1.999,-0.97 8.41,-3.85 10.05,-4.536 1.432,-0.599 2.995,-0.614 3.651,0.499 0.714,1.216 -0.448,2.757 -1.908,3.398 -1.462,0.642 -8.855,3.992 -10.836,4.879 -0.712,0.319 -1.251,0.76 -1.251,1.691 0,0.932 0.982,1.759 2.009,1.741 1.399,-0.024 6.105,-3.553 9.072,-3.553 2.927,0 6.381,2.713 6.349,6.299 -0.025,2.819 -1.201,4.953 -3.947,6.252 l -12.036,5.319 c -1.17,0.592 -1.938,1.152 -1.938,2.305 0,1.128 0.785,1.927 2.012,1.912 2.084,-0.024 4.069,-1.398 5.074,-1.906 0.559,-0.283 2.72,-1.333 4.781,-1.331 3.751,0.006 7.888,3.5 7.795,7.944 -0.094,4.471 -1.673,5.744 -4.633,7.158 -3.285,1.569 -8.511,3.842 -11.988,5.344 -2.895,1.251 -3.139,2.33 -3.139,3.556 0,1.985 1.006,2.476 2.575,2.476 1.559,0 3.162,-1.349 4.609,-2.275 1.84,-1.177 4.191,-1.254 6.535,-1.238 4.914,0.032 7.924,4.739 7.879,7.852 -0.075,4.952 -3.063,7.355 -6.839,8.997 -2.268,0.987 -7.748,3.318 -12.687,5.484 -1.802,0.792 -3.346,1.582 -3.349,3.195 -10e-4,1.626 0.824,1.876 1.566,2.69 0.741,0.813 1.075,2.824 -0.091,3.954 C 3.852,1.902 1.581,1.544 0,0" /></g><g
           transform="translate(189.0791,362.1855)"
           id="g52"><path
             id="path54"
             style="fill:#006862;fill-opacity:1;fill-rule:nonzero;stroke:none"
             d="M 0,0 C 0.689,0 1.248,0.559 1.248,1.249 1.248,1.937 0.689,2.497 0,2.497 -0.689,2.497 -1.249,1.937 -1.249,1.249 -1.249,0.559 -0.689,0 0,0" /></g><g
           transform="translate(130.2412,234.8467)"
           id="g56"><path
             id="path58"
             style="fill:#006862;fill-opacity:1;fill-rule:nonzero;stroke:none"
             d="m 0,0 c 0,1.976 0,6.547 -0.618,8.217 -0.803,2.1 -3.548,2.1 -5.525,2.1 v 2.091 h 32.82 V 2.868 H 25.045 C 23.942,9.655 19.769,9.893 14.321,9.893 H 9.874 C 7.959,9.893 8.269,10.08 8.269,7.362 V -6.435 c 7.795,-0.341 9.044,3.138 9.433,7.811 h 1.845 c -0.062,-2.78 -0.123,-5.834 -0.246,-8.613 0.123,-2.534 0.184,-5.553 0.246,-8.085 h -1.845 c -0.826,6.193 -3.935,6.796 -9.433,6.796 V -17.6 c 0,-1.853 0,-5.18 1.112,-6.662 1.605,-2.163 5.435,-2.287 7.907,-2.226 5.12,0.1 10.019,1.198 10.793,8.28 h 1.632 L 29.581,-28.367 H -3.603 v 1.633 c 1.217,0 2.711,1.046 3.196,2.313 0.618,1.668 0.407,6.027 0.407,8.004 z" /></g><g
           transform="translate(231.0352,178.3652)"
           id="g60"><path
             id="path62"
             style="fill:#006862;fill-opacity:1;fill-rule:nonzero;stroke:none"
             d="m 0,0 c 0,1.975 0,6.548 -0.615,8.216 -0.804,2.1 -3.55,2.1 -5.526,2.1 v 2.092 H 26.68 V 2.867 h -1.635 c -1.1,6.788 -5.274,7.027 -10.722,7.027 H 9.878 C 7.962,9.894 8.269,10.078 8.269,7.36 V -6.435 c 7.796,-0.341 9.044,3.138 9.435,7.812 h 1.843 c -0.061,-2.781 -0.122,-5.835 -0.244,-8.615 0.122,-2.533 0.183,-5.551 0.244,-8.085 h -1.843 c -0.826,6.194 -3.934,6.798 -9.435,6.798 V -17.6 c 0,-1.854 0,-5.181 1.112,-6.662 1.605,-2.163 5.437,-2.288 7.908,-2.225 5.121,0.098 10.02,1.196 10.792,8.278 h 1.635 L 29.583,-28.368 H -3.602 v 1.634 c 1.217,0 2.712,1.046 3.197,2.311 0.619,1.67 0.405,6.029 0.405,8.005 z" /></g><g
           transform="translate(308.8945,178.3652)"
           id="g64"><path
             id="path66"
             style="fill:#006862;fill-opacity:1;fill-rule:nonzero;stroke:none"
             d="m 0,0 c 0,1.975 0,6.548 -0.617,8.216 -0.803,2.1 -3.548,2.1 -5.526,2.1 v 2.092 H 26.678 V 2.867 H 25.045 C 23.943,9.655 19.769,9.894 14.322,9.894 H 9.876 C 7.961,9.894 8.267,10.078 8.267,7.36 V -6.435 c 7.796,-0.341 9.046,3.138 9.437,7.812 h 1.843 c -0.062,-2.781 -0.122,-5.835 -0.246,-8.615 0.124,-2.533 0.184,-5.551 0.246,-8.085 h -1.843 c -0.828,6.194 -3.936,6.798 -9.437,6.798 V -17.6 c 0,-1.854 0,-5.181 1.114,-6.662 1.606,-2.163 5.435,-2.288 7.907,-2.225 5.12,0.098 10.021,1.196 10.792,8.278 h 1.634 L 29.582,-28.368 H -3.602 v 1.634 c 1.217,0 2.711,1.046 3.196,2.311 0.618,1.67 0.406,6.029 0.406,8.005 z" /></g><g
           transform="translate(175.6641,217.5449)"
           id="g68"><path
             id="path70"
             style="fill:#006862;fill-opacity:1;fill-rule:nonzero;stroke:none"
             d="m 0,0 c 0,-2.101 -0.247,-5.067 0.988,-6.859 1.421,-2.1 3.936,-2.135 6.284,-2.135 9.542,0 11.218,7.901 11.218,16.505 0,11.496 -3.395,20.422 -14.413,20.422 -0.74,0 -3.152,0.124 -3.706,-0.432 C 0,27.131 0,26.081 0,25.585 Z m -8.058,17.74 c 0,1.977 0,6.55 -0.555,8.218 -0.68,2.161 -3.275,2.099 -5.25,2.099 v 1.756 c 2.532,-0.061 6.035,-0.185 8.631,-0.246 3.334,0.061 7.518,0.185 10.853,0.246 13.035,0.247 22.497,-7.907 22.497,-21.313 0,-13.099 -8.165,-19.895 -20.89,-19.585 -3.645,0.062 -8.198,0.186 -11.843,0.247 -2.842,-0.061 -6.469,-0.185 -9.248,-0.247 v 1.632 c 1.975,0 4.57,0 5.25,2.102 0.555,1.668 0.555,6.239 0.555,8.216 z" /></g><g
           transform="translate(207.5498,235.4092)"
           id="g72"><path
             id="path74"
             style="fill:#006862;fill-opacity:1;fill-rule:nonzero;stroke:none"
             d="m 0,0 c 0,1.976 0.421,5.913 -0.196,7.582 -0.803,2.1 -3.759,2.734 -5.736,2.734 v 1.633 c 2.965,-0.06 6.78,-0.186 9.743,-0.247 3.15,0.061 6.662,0.187 9.751,0.247 V 10.316 C 11.585,10.316 9.054,9.47 8.25,7.369 7.632,5.701 8.056,1.976 8.056,0 v -17 c 0,-1.977 -0.212,-5.914 0.405,-7.582 0.805,-2.101 4.395,-2.735 6.372,-2.735 v -1.633 c -2.901,0.061 -7.623,0.187 -10.591,0.248 -3.089,-0.061 -7.508,-0.187 -10.598,-0.248 v 1.633 c 1.977,0 5.147,0.423 5.948,2.525 C 0.212,-23.124 0,-18.977 0,-17 Z" /></g><g
           transform="translate(254.8369,247.4668)"
           id="g76"><path
             id="path78"
             style="fill:#006862;fill-opacity:1;fill-rule:nonzero;stroke:none"
             d="M 0,0 H 1.771 L 2.266,-11.747 H 0.422 c -0.99,6.466 -5.802,10.829 -11.977,10.829 -11.548,0 -13.97,-10.754 -13.97,-20.413 0,-8.741 3.616,-18.43 14.305,-18.43 7.839,0 11.274,6.724 12.593,13.592 H 3.122 V -40.122 H 1.683 L 0.2,-36.759 c -3.333,-2.638 -5.94,-5.269 -13.438,-5.269 -13.407,0 -21.914,8.917 -21.914,20.697 0,14.402 9.465,22.47 22.467,22.47 5.068,0 7.434,-0.963 11.696,-3.619 z" /></g><g
           transform="translate(282.2773,222.7612)"
           id="g80"><path
             id="path82"
             style="fill:#006862;fill-opacity:1;fill-rule:nonzero;stroke:none"
             d="M 0,0 -6.37,16.364 -12.805,0 Z m -13.953,-3.733 c -0.927,-2.347 -2.33,-5.862 -2.33,-8.27 0,-2.26 2.989,-2.687 4.794,-2.868 v -1.633 c -2.287,0.061 -4.935,0.185 -7.221,0.248 -2.162,-0.063 -4.897,-0.187 -7.061,-0.248 v 1.633 c 2.837,0.314 5.311,2.345 6.143,4.387 1.731,3.953 3.399,7.633 5.129,11.588 l 9.452,24.28 h 3.158 L 10.59,-5.79 c 0.741,-1.606 2.1,-5.376 3.212,-6.794 1.359,-1.793 3.212,-2.042 5.313,-2.287 v -1.633 c -2.902,0.061 -6.503,0.185 -9.407,0.248 -2.966,-0.063 -7.264,-0.187 -10.229,-0.248 v 1.633 c 1.29,0.045 4.758,1.014 4.758,2.771 0,0.596 -0.973,3.726 -1.235,4.395 l -2.411,5.516 h -13.987 z" /></g><g
           transform="translate(305.7422,235.3228)"
           id="g84"><path
             id="path86"
             style="fill:#006862;fill-opacity:1;fill-rule:nonzero;stroke:none"
             d="m 0,0 c 0,1.978 -0.211,6.338 -0.828,8.006 -0.803,2.1 -3.125,2.314 -5.101,2.314 v 1.631 c 2.965,-0.061 6.292,-0.184 9.257,-0.247 3.151,0.063 6.875,0.186 10.026,0.247 V 10.32 C 11.376,10.32 9.008,10.368 8.205,8.266 7.588,6.599 7.847,1.978 7.847,0 v -17.439 c 0,-7.909 0.6,-9.205 8.445,-9.205 2.756,0 5.247,-0.315 7.714,1.121 2.586,1.503 4.197,4.905 4.649,7.723 H 30.2 l -0.554,-11.148 c -1.052,0.062 -2.163,0.124 -3.214,0.246 -10.624,-0.184 -21.736,-0.184 -32.361,-0.246 v 1.633 c 1.976,0 4.723,0.633 5.525,2.735 0.618,1.667 0.404,5.605 0.404,7.582 z" /></g><g
           transform="translate(156.4727,178.6465)"
           id="g88"><path
             id="path90"
             style="fill:#006862;fill-opacity:1;fill-rule:nonzero;stroke:none"
             d="m 0,0 c 0,1.978 -0.212,6.338 -0.828,8.005 -0.805,2.102 -3.126,2.313 -5.101,2.313 v 1.632 c 2.964,-0.062 6.292,-0.185 9.256,-0.248 3.151,0.063 6.876,0.186 10.026,0.248 v -1.632 c -1.978,0 -4.347,0.048 -5.148,-2.051 C 7.585,6.598 7.845,1.978 7.845,0 v -17.438 c 0,-7.909 0.6,-9.208 8.446,-9.208 2.755,0 5.247,-0.313 7.715,1.123 2.585,1.503 4.197,4.903 4.649,7.721 h 1.544 L 29.645,-28.95 c -1.051,0.063 -2.164,0.126 -3.213,0.249 -10.626,-0.186 -21.737,-0.186 -32.361,-0.249 v 1.635 c 1.975,0 4.721,0.634 5.522,2.733 0.619,1.669 0.407,5.606 0.407,7.584 z" /></g><g
           transform="translate(195.1216,178.6465)"
           id="g92"><path
             id="path94"
             style="fill:#006862;fill-opacity:1;fill-rule:nonzero;stroke:none"
             d="m 0,0 c 0,1.978 -0.212,6.338 -0.83,8.005 -0.802,2.102 -3.124,2.313 -5.101,2.313 v 1.632 c 2.965,-0.062 6.294,-0.185 9.259,-0.248 3.15,0.063 6.874,0.186 10.025,0.248 v -1.632 c -1.978,0 -4.346,0.048 -5.148,-2.051 C 7.585,6.598 7.844,1.978 7.844,0 v -17.438 c 0,-7.909 0.602,-9.208 8.447,-9.208 2.755,0 5.246,-0.313 7.713,1.123 2.586,1.503 4.198,4.903 4.652,7.721 H 30.2 L 29.645,-28.95 c -1.052,0.063 -2.163,0.126 -3.215,0.249 -10.624,-0.186 -21.735,-0.186 -32.361,-0.249 v 1.635 c 1.977,0 4.723,0.634 5.524,2.733 0.619,1.669 0.407,5.606 0.407,7.584 z" /></g><g
           transform="translate(115.7861,169.5791)"
           id="g96"><path
             id="path98"
             style="fill:#006862;fill-opacity:1;fill-rule:nonzero;stroke:none"
             d="m 0,0 c 0,-8.963 3.523,-19.337 14.226,-19.337 10.016,0 12.64,11.495 12.64,19.523 0,8.678 -2.285,19.673 -13.01,19.673 C 4.542,19.859 0,11.313 0,0 m -9.415,0 c 0,13.668 11.057,21.951 23.519,21.951 12.043,0 22.6,-9.235 22.6,-21.517 0,-12.665 -10.581,-21.65 -23.06,-21.65 -12.34,0 -23.059,8.065 -23.059,21.216" /></g><g
           transform="translate(298.3564,178.8887)"
           id="g100"><path
             id="path102"
             style="fill:#006862;fill-opacity:1;fill-rule:nonzero;stroke:none"
             d="m 0,0 h -1.934 c -1.47,7.887 -6.134,11.076 -12.107,11.076 -10.969,0 -13.794,-10.943 -13.794,-20.46 0,-8.04 2.949,-18.346 12.814,-18.346 6.178,0 9.681,2.903 9.681,9.266 0,4.139 -1.544,4.943 -5.311,5.251 v 1.633 h 17.88 v -1.633 c -3.337,0.062 -4.256,-1.606 -4.256,-4.695 v -6.973 c -4.51,0 -5.515,-0.705 -9.345,-2.806 -3.15,-1.606 -6.179,-2.346 -9.699,-2.346 -12.586,0 -21.181,7.954 -21.181,20.775 0,13.24 9.133,22.602 22.046,22.602 4.571,0 8.719,-0.9 12.426,-3.68 l 1.297,2.569 h 1.739 z" /></g><g
           transform="translate(36.9556,117.8486)"
           id="g104"><path
             id="path106"
             style="fill:#006862;fill-opacity:1;fill-rule:nonzero;stroke:none"
             d="m 0,0 c 0,-7.458 2.875,-15.651 11.142,-15.651 8.507,0 10.54,8.988 10.54,15.801 0,7.303 -2.579,15.751 -10.841,15.751 C 2.192,15.901 0,6.469 0,0 m -7.731,0 c 0,11.077 9.221,17.462 18.773,17.462 9.549,0 18.584,-7.213 18.584,-17.113 0,-10.937 -8.979,-17.562 -18.785,-17.562 -9.749,0 -18.572,7.162 -18.572,17.213" /></g><g
           transform="translate(229.8135,117.8486)"
           id="g108"><path
             id="path110"
             style="fill:#006862;fill-opacity:1;fill-rule:nonzero;stroke:none"
             d="m 0,0 c 0,-7.458 2.874,-15.651 11.141,-15.651 8.506,0 10.541,8.988 10.541,15.801 0,7.303 -2.581,15.751 -10.842,15.751 C 2.19,15.901 0,6.469 0,0 m -7.732,0 c 0,11.077 9.221,17.462 18.773,17.462 9.551,0 18.584,-7.213 18.584,-17.113 0,-10.937 -8.979,-17.562 -18.785,-17.562 -9.749,0 -18.572,7.162 -18.572,17.213" /></g><g
           transform="translate(91.7124,126.5957)"
           id="g112"><path
             id="path114"
             style="fill:#006862;fill-opacity:1;fill-rule:nonzero;stroke:none"
             d="m 0,0 h -1.15 c -0.6,2.15 -1.1,4.251 -3.35,5.199 -2.149,0.949 -4.365,0.902 -6.764,0.902 -4,0 -3.851,0.348 -3.95,-2.802 V -7.478 c 4.842,-0.212 6.68,0.952 7.726,5.626 h 1.573 c -0.05,-2.25 -0.1,-4.549 -0.2,-6.798 0.1,-2.051 0.15,-4.15 0.2,-6.2 h -1.573 c -0.759,5.69 -2.328,5.348 -7.726,5.348 v -6.087 c 0,-1.551 -0.212,-4.615 0.288,-5.965 0.75,-2.001 3.2,-2.235 4.949,-2.336 v -1.361 c -2.549,0.051 -5.572,0.148 -8.123,0.199 -2.548,-0.051 -5.685,-0.148 -8.334,-0.199 v 1.361 c 1.6,0 3.861,0.211 4.512,1.911 0.5,1.352 0.288,4.839 0.288,6.44 v 13.678 c 0,1.599 0.212,5.088 -0.288,6.437 -0.651,1.702 -2.912,1.912 -4.512,1.912 V 7.85 C -23.385,7.8 -19.8,7.699 -16.85,7.649 -11.5,7.699 -6.149,7.8 -0.8,7.85 Z" /></g><g
           transform="translate(124.7324,124.7021)"
           id="g116"><path
             id="path118"
             style="fill:#006862;fill-opacity:1;fill-rule:nonzero;stroke:none"
             d="m 0,0 -3.618,-12.308 c -1.35,-4 -2.75,-7.95 -4.1,-11.95 h -2.123 l -8.75,26.69 c -0.4,1.15 -0.888,3.587 -1.637,4.438 -0.852,1.151 -1.939,1.41 -3.39,1.513 v 1.36 c 2.401,-0.05 4.8,-0.15 7.201,-0.2 2.449,0.05 5.373,0.15 7.823,0.2 v -1.36 c -1.6,-0.152 -4.289,-0.152 -4.289,-2.453 0,-1.149 1.362,-4.849 1.713,-6.099 l 4.625,-14.54 7.515,24.452 h 2.235 l 7.975,-23.57 2.878,8.443 c 0.65,2.199 2.649,8.464 2.649,10.417 0,3.099 -1.375,3.099 -3.875,3.35 v 1.36 c 1.799,-0.05 3.599,-0.15 5.399,-0.2 1.75,0.05 3.451,0.15 5.2,0.2 v -1.36 c -3.7,0.097 -4.399,-3.801 -5.2,-6.601 l -7.826,-26.04 H 7.808 Z" /></g><g
           transform="translate(152.5366,124.7344)"
           id="g120"><path
             id="path122"
             style="fill:#006862;fill-opacity:1;fill-rule:nonzero;stroke:none"
             d="m 0,0 c 0,1.6 0,5.3 -0.5,6.65 -0.65,1.7 -2.701,1.7 -4.3,1.7 v 1.36 c 2.399,-0.049 5.435,-0.149 7.835,-0.199 2.55,0.05 5.26,0.15 7.761,0.199 V 8.35 c -1.6,0 -3.65,-0.211 -4.3,-1.913 C 5.997,5.088 6.42,1.6 6.42,0 v -13.679 c 0,-1.6 -0.212,-4.875 0.289,-6.226 0.649,-1.699 2.911,-2.122 4.51,-2.122 v -1.362 c -2.348,0.05 -5.434,0.148 -7.835,0.199 -2.5,-0.051 -5.686,-0.149 -8.184,-0.199 v 1.362 c 1.599,0 3.862,0.423 4.511,2.122 0.501,1.351 0.289,4.626 0.289,6.226 z" /></g><g
           transform="translate(165.0972,111.4463)"
           id="g124"><path
             id="path126"
             style="fill:#006862;fill-opacity:1;fill-rule:nonzero;stroke:none"
             d="m 0,0 h 1.574 c 0.999,-5.053 3.699,-9.09 9.448,-9.09 3.9,0 6.727,1.986 6.727,6.038 0,4.188 -4.488,6.141 -7.6,7.376 -4.548,1.751 -9.61,4.576 -9.61,10.274 0,5.7 5.085,9.214 10.535,9.214 2.749,0 5.088,-0.74 7.337,-2.339 l 1.15,1.95 h 0.973 l 0.462,-9.285 h -1.363 c -1.149,4.15 -3.288,7.9 -8.137,7.9 -3.2,0 -5.637,-1.839 -5.637,-5.088 0,-3.951 3.817,-4.54 6.859,-5.967 6.564,-3.078 10.789,-5.062 10.789,-11.934 0,-6.147 -4.96,-9.699 -12.583,-9.699 -3.401,0 -5.839,0.575 -8.539,2.576 L 1.397,-9.752 H 0 Z" /></g><g
           transform="translate(321.207,124.7344)"
           id="g128"><path
             id="path130"
             style="fill:#006862;fill-opacity:1;fill-rule:nonzero;stroke:none"
             d="m 0,0 c 0,1.6 0,5.3 -0.5,6.65 -0.65,1.7 -2.7,1.7 -4.301,1.7 V 9.71 C -2.4,9.661 0.635,9.561 3.034,9.511 5.585,9.561 8.297,9.661 10.796,9.71 V 8.35 C 9.195,8.35 7.148,8.139 6.496,6.437 5.997,5.088 6.42,1.6 6.42,0 v -13.679 c 0,-1.6 -0.212,-4.875 0.289,-6.226 0.65,-1.699 2.911,-2.122 4.512,-2.122 v -1.362 c -2.35,0.05 -5.436,0.148 -7.835,0.199 -2.5,-0.051 -5.686,-0.149 -8.187,-0.199 v 1.362 c 1.601,0 3.863,0.423 4.512,2.122 0.501,1.351 0.289,4.626 0.289,6.226 z" /></g><g
           transform="translate(293.042,111.4463)"
           id="g132"><path
             id="path134"
             style="fill:#006862;fill-opacity:1;fill-rule:nonzero;stroke:none"
             d="m 0,0 h 1.574 c 0.998,-5.053 3.699,-9.09 9.448,-9.09 3.9,0 6.727,1.986 6.727,6.038 0,4.188 -4.489,6.141 -7.6,7.376 C 5.601,6.075 0.538,8.9 0.538,14.598 c 0,5.7 5.086,9.214 10.535,9.214 2.749,0 5.088,-0.74 7.339,-2.339 l 1.147,1.95 h 0.976 l 0.46,-9.285 h -1.361 c -1.15,4.15 -3.288,7.9 -8.137,7.9 -3.2,0 -5.639,-1.839 -5.639,-5.088 0,-3.951 3.819,-4.54 6.861,-5.967 6.561,-3.078 10.788,-5.062 10.788,-11.934 0,-6.147 -4.962,-9.699 -12.583,-9.699 -3.402,0 -5.838,0.575 -8.538,2.576 L 1.396,-9.752 H 0 Z" /></g><g
           transform="translate(217.9531,134.5068)"
           id="g136"><path
             id="path138"
             style="fill:#006862;fill-opacity:1;fill-rule:nonzero;stroke:none"
             d="m 0,0 h 1.173 l 0.4,-9.64 h -1.15 c -2.077,5.37 -3.109,8.817 -10.338,8.817 -8.459,0 -10.591,-8.737 -10.591,-16.139 0,-6.472 2.773,-14.965 10.691,-14.965 7,0 9.337,5 10.838,10.999 h 1.323 v -11.16 H 1.273 l -1.201,2.337 c -3.349,-2.649 -6.537,-3.961 -10.838,-3.961 -10.15,0 -17.472,6.55 -17.472,16.75 0,10.837 7.086,17.925 17.924,17.925 4.099,0 5.852,-0.738 9.301,-2.891 z" /></g><g
           transform="translate(262.1904,130.084)"
           id="g140"><path
             id="path142"
             style="fill:#006862;fill-opacity:1;fill-rule:nonzero;stroke:none"
             d="m 0,0 c -1.551,2.2 -2.54,2.949 -5.24,3 v 1.359 c 1.6,-0.047 3.576,-0.148 5.174,-0.197 1.299,0.049 3.073,0.15 4.586,0.197 l 20.351,-24.478 v 12.418 c 0,2.15 0,5.65 -0.45,7.701 -0.6,2.799 -1.525,2.599 -4.025,3 v 1.359 c 1.848,-0.047 3.648,-0.148 5.499,-0.197 1.751,0.049 3.45,0.15 5.298,0.197 L 31.193,3 C 29.345,2.799 28.046,2.949 27.396,0.8 26.895,-0.8 26.795,-5.95 26.795,-7.951 v -21.338 h -2.346 c -1.102,1.349 -2.624,3.173 -3.723,4.572 L 1.923,-2.074 v -15.954 c 0,-1.851 -0.084,-5.116 0.538,-6.875 0.709,-2.007 2.711,-2.274 4.561,-2.475 v -1.361 c -1.9,0.052 -4.062,0.148 -5.961,0.199 -1.85,-0.051 -3.912,-0.147 -5.761,-0.199 v 1.361 c 1.949,0.201 4.216,0.688 4.51,2.873 0.263,1.949 0.19,4.528 0.19,6.477 z" /></g><g
           transform="translate(338.5947,130.084)"
           id="g144"><path
             id="path146"
             style="fill:#006862;fill-opacity:1;fill-rule:nonzero;stroke:none"
             d="m 0,0 c -1.548,2.2 -2.537,2.949 -5.238,3 v 1.359 c 1.6,-0.047 3.573,-0.148 5.174,-0.197 1.3,0.049 3.073,0.15 4.585,0.197 l 20.352,-24.478 v 12.418 c 0,2.15 0,5.65 -0.451,7.701 -0.601,2.799 -1.526,2.599 -4.026,3 v 1.359 c 1.85,-0.047 3.65,-0.148 5.5,-0.197 1.75,0.049 3.45,0.15 5.3,0.197 V 3 c -1.85,-0.201 -3.15,-0.051 -3.8,-2.2 -0.5,-1.6 -0.599,-6.75 -0.599,-8.751 v -21.338 h -2.346 c -1.102,1.349 -2.626,3.173 -3.724,4.572 L 1.924,-2.074 v -15.954 c 0,-1.851 -0.084,-5.116 0.538,-6.875 0.709,-2.007 2.712,-2.274 4.561,-2.475 v -1.361 c -1.899,0.052 -4.06,0.148 -5.961,0.199 -1.851,-0.051 -3.912,-0.147 -5.761,-0.199 v 1.361 c 1.949,0.201 4.218,0.688 4.511,2.873 0.263,1.949 0.188,4.528 0.188,6.477 z" /></g><g
           transform="translate(118.0474,216.1045)"
           id="g148"><path
             id="path150"
             style="fill:#006862;fill-opacity:1;fill-rule:nonzero;stroke:none"
             d="m 0,0 c 0,-5.385 -0.445,-7.387 6.224,-7.943 v -2.114 c -3.826,0.074 -7.429,0.221 -11.034,0.294 -3.676,-0.073 -7.216,-0.22 -10.893,-0.294 v 2.114 c 5.688,0.475 6.435,2.051 6.435,7.943 V 28.892 H -9.415 L -17.375,10.7 c -3.09,-7.06 -5.895,-13.697 -8.983,-20.757 h -1.793 L -45.177,28.68 h -0.147 V 1.102 c 0,-5.325 1.073,-8.771 6.637,-9.045 v -2.114 c -2.722,0.074 -5.442,0.221 -8.164,0.294 -2.573,-0.073 -5.148,-0.22 -7.721,-0.294 v 2.114 c 5.589,0 6.618,3.383 6.618,6.691 v 30.485 c 0,1.913 -0.294,3.825 -0.662,4.78 -0.955,2.501 -4.394,2.501 -6.748,2.501 v 2.116 c 2.501,-0.148 5.986,-0.222 8.487,-0.294 2.279,0.072 5.121,0.146 7.4,0.294 L -24.142,2.879 -8.827,38.63 c 2.281,-0.148 5.48,-0.222 7.76,-0.294 2.353,0.072 5.553,0.146 8.128,0.294 V 36.653 C 4.708,36.653 1.838,36.367 0.735,33.94 0,32.323 0,28.71 0,25.989 Z" /></g><g
           transform="translate(100.8008,198.6084)"
           id="g152"><path
             id="path154"
             style="fill:#006862;fill-opacity:1;fill-rule:nonzero;stroke:none"
             d="M 0,0 H 1.95 L 2.538,-14.701 H 0.636 c -1.481,9.192 -8.1,13.239 -15.308,13.264 -13.899,0.052 -16.077,-15.973 -16.077,-24.259 0,-10.764 4.431,-22.524 16.86,-22.524 9.793,0 13.522,8.008 15.618,16.392 h 1.96 V -48.57 H 2.097 l -1.765,3.752 c -4.432,-3.507 -10.557,-6.153 -16.042,-6.153 -14.244,0 -26.349,8.016 -26.349,25.275 0,16.694 11.477,26.798 26.799,26.798 5.519,0 9.717,-1.837 14.084,-4.559 z" /></g><g
           transform="translate(200.3496,279.9897)"
           id="g156"><path
             id="path158"
             style="fill:#ffffff;fill-opacity:1;fill-rule:nonzero;stroke:none"
             d="M 0,0 1.636,76.384 3.009,77.666 3.003,80.148 0,78.586 l -3.003,1.562 -0.006,-2.482 1.373,-1.282 z" /></g><g
           transform="translate(200.3496,279.9897)"
           id="g160"><path
             id="path162"
             style="fill:#ffffff;fill-opacity:1;fill-rule:nonzero;stroke:none"
             d="m 0,0 0.441,-0.01 1.631,76.199 1.238,1.154 c 0.089,0.084 0.14,0.201 0.14,0.324 l -0.007,2.482 c 0,0.153 -0.081,0.297 -0.212,0.376 C 3.1,80.604 2.936,80.61 2.799,80.539 L 0,79.083 -2.799,80.539 C -2.936,80.61 -3.1,80.604 -3.231,80.525 -3.362,80.446 -3.443,80.302 -3.444,80.149 L -3.45,77.667 c -10e-4,-0.123 0.05,-0.24 0.14,-0.324 l 1.237,-1.154 1.632,-76.199 c 0.005,-0.239 0.202,-0.431 0.441,-0.431 0.24,0 0.437,0.192 0.441,0.431 L 0,0 0.441,0.009 -1.195,76.394 c -0.003,0.12 -0.053,0.231 -0.14,0.313 l -1.232,1.15 0.004,1.565 2.36,-1.227 c 0.128,-0.067 0.278,-0.067 0.407,0 l 2.359,1.227 0.004,-1.565 -1.232,-1.15 C 1.247,76.625 1.197,76.514 1.194,76.394 L -0.441,0.009 0,0 0.441,0.009 Z" /></g></g></g><g
       transform="translate(29.2241,71.0859)"
       id="g164"><path
         id="path166"
         style="fill:#006862;fill-opacity:1;fill-rule:nonzero;stroke:none"
         d="M 0,0 H 340.567 V 2.557 H 0" /></g><g
       id="g168"><g
         clip-path="url(#clipPath174)"
         id="g170"><g
           transform="translate(45.4795,23.2988)"
           id="g176"><path
             id="path178"
             style="fill:#006862;fill-opacity:1;fill-rule:nonzero;stroke:none"
             d="m 0,0 c 0.328,-0.774 0.504,-1.215 0.527,-1.319 0.071,-0.224 0.106,-0.44 0.106,-0.651 0,-0.352 -0.129,-0.622 -0.386,-0.81 -0.376,-0.258 -1.027,-0.387 -1.954,-0.387 H -2.182 V -3.818 H 9.359 v 0.651 c -0.727,0.059 -1.29,0.27 -1.689,0.634 -0.528,0.48 -1.203,1.646 -2.024,3.501 L -2.956,20.529 H -3.29 L -11.822,1.494 c -0.809,-1.817 -1.489,-3.016 -2.04,-3.597 -0.552,-0.58 -1.256,-0.935 -2.111,-1.064 v -0.651 h 7.933 v 0.651 c -1.243,0.093 -2.023,0.234 -2.339,0.423 -0.54,0.315 -0.809,0.808 -0.809,1.476 0,0.505 0.164,1.144 0.492,1.918 l 1.003,2.323 h 8.426 z m -9.078,4.274 3.66,8.215 3.553,-8.215 z m 19.351,15.762 v -0.65 c 0.727,-0.024 1.285,-0.135 1.672,-0.335 0.387,-0.199 0.832,-0.615 1.336,-1.248 l 0.511,-0.635 V 0.333 c 0,-1.266 -0.258,-2.163 -0.774,-2.69 -0.516,-0.529 -1.431,-0.798 -2.745,-0.81 v -0.651 h 8.462 v 0.651 h -0.563 c -0.809,0 -1.528,0.24 -2.154,0.721 -0.628,0.481 -0.942,1.407 -0.942,2.779 V 15.498 L 31.208,-4.363 h 0.598 v 19.861 c 0,1.126 0.097,1.92 0.29,2.383 0.194,0.464 0.463,0.798 0.809,1.003 0.346,0.206 1.023,0.372 2.032,0.502 v 0.65 h -7.881 v -0.65 c 1.325,0.023 2.269,-0.306 2.832,-0.986 0.41,-0.504 0.616,-1.471 0.616,-2.902 V 5.242 L 18.735,20.036 Z m 37.788,-1.372 c 1.805,0 3.037,-0.104 3.694,-0.315 1.126,-0.353 1.996,-0.905 2.612,-1.655 0.615,-0.751 1.094,-1.988 1.434,-3.712 h 0.668 v 7.054 H 36.502 v -0.65 h 0.792 c 0.775,0 1.384,-0.165 1.83,-0.493 0.317,-0.223 0.533,-0.539 0.651,-0.951 0.058,-0.246 0.088,-0.909 0.088,-1.987 V 0.264 c 0,-1.197 -0.065,-1.936 -0.194,-2.217 -0.164,-0.4 -0.398,-0.68 -0.703,-0.845 -0.422,-0.246 -0.98,-0.369 -1.672,-0.369 H 36.502 V -3.818 H 57.12 l 1.073,7.582 H 57.542 C 56.956,1.652 55.991,0.081 54.648,-0.95 53.305,-1.982 51.52,-2.498 49.292,-2.498 h -1.425 c -0.68,0 -1.173,0.094 -1.477,0.28 -0.306,0.188 -0.514,0.429 -0.625,0.722 -0.112,0.294 -0.168,1.097 -0.168,2.41 v 6.72 c 1.138,0 2.006,-0.15 2.604,-0.448 0.599,-0.299 1.123,-0.882 1.575,-1.75 0.451,-0.868 0.747,-1.983 0.888,-3.342 h 0.669 V 14.583 H 50.664 C 50.476,12.73 50.042,11.328 49.362,10.378 48.682,9.428 47.585,8.954 46.072,8.954 h -0.475 v 9.71 z m 28.146,1.918 c -0.153,-0.716 -0.317,-1.168 -0.493,-1.354 -0.175,-0.188 -0.416,-0.282 -0.721,-0.282 -0.316,0 -0.87,0.19 -1.662,0.572 -0.791,0.38 -1.463,0.642 -2.015,0.783 -0.727,0.187 -1.477,0.281 -2.251,0.281 -2.123,0 -3.882,-0.668 -5.278,-2.005 -1.395,-1.338 -2.094,-2.957 -2.094,-4.855 0,-1.116 0.256,-2.135 0.766,-3.062 0.51,-0.926 1.24,-1.765 2.19,-2.515 0.95,-0.75 2.51,-1.661 4.68,-2.727 1.547,-0.763 2.627,-1.381 3.236,-1.856 0.61,-0.475 1.065,-0.977 1.364,-1.504 0.299,-0.528 0.449,-1.073 0.449,-1.636 0,-0.95 -0.39,-1.783 -1.17,-2.498 -0.78,-0.716 -1.827,-1.074 -3.141,-1.074 -1.7,0 -3.287,0.666 -4.758,1.998 -1.472,1.331 -2.466,3.263 -2.982,5.797 h -0.651 v -9.008 h 0.651 c 0.211,0.48 0.486,0.839 0.827,1.073 0.34,0.235 0.662,0.352 0.968,0.352 0.363,0 0.826,-0.117 1.389,-0.352 1.009,-0.422 1.847,-0.71 2.516,-0.862 0.668,-0.153 1.378,-0.229 2.128,-0.229 2.393,0 4.366,0.718 5.92,2.154 1.554,1.438 2.331,3.153 2.331,5.147 0,1.572 -0.481,2.967 -1.443,4.186 -0.973,1.22 -2.856,2.516 -5.647,3.889 -1.993,0.984 -3.266,1.67 -3.817,2.058 -0.75,0.539 -1.296,1.085 -1.636,1.636 -0.246,0.41 -0.369,0.879 -0.369,1.407 0,0.833 0.349,1.568 1.047,2.208 0.697,0.638 1.645,0.958 2.84,0.958 1.549,0 2.988,-0.607 4.32,-1.821 1.33,-1.212 2.166,-2.817 2.506,-4.811 h 0.721 l -0.193,7.952 z M 81.15,20.036 V 13.58 h 0.668 c 0.27,1.76 0.915,3.114 1.935,4.065 0.728,0.679 1.894,1.019 3.502,1.019 h 1.723 v -18.4 c 0,-1.197 -0.064,-1.936 -0.193,-2.217 -0.176,-0.4 -0.417,-0.68 -0.721,-0.845 -0.422,-0.246 -0.98,-0.369 -1.671,-0.369 h -0.792 v -0.651 h 12.49 v 0.651 h -0.792 c -0.68,0 -1.216,0.114 -1.609,0.343 -0.394,0.228 -0.657,0.496 -0.792,0.801 -0.135,0.303 -0.203,1.067 -0.203,2.287 v 18.4 h 1.778 c 1.113,0 1.894,-0.104 2.339,-0.315 0.797,-0.388 1.425,-0.908 1.882,-1.559 0.458,-0.65 0.874,-1.721 1.249,-3.21 h 0.634 v 6.456 z M 122.156,7.651 V 0.264 c 0,-1.197 -0.065,-1.936 -0.193,-2.217 -0.176,-0.4 -0.417,-0.68 -0.722,-0.845 -0.41,-0.246 -0.968,-0.369 -1.671,-0.369 h -0.774 v -0.651 h 12.455 v 0.651 h -0.774 c -0.668,0 -1.202,0.114 -1.601,0.343 -0.399,0.228 -0.662,0.496 -0.792,0.801 -0.129,0.303 -0.193,1.067 -0.193,2.287 v 15.691 c 0,1.196 0.064,1.935 0.193,2.217 0.176,0.398 0.417,0.68 0.722,0.845 0.41,0.245 0.967,0.369 1.671,0.369 h 0.774 v 0.65 h -12.455 v -0.65 h 0.774 c 0.669,0 1.202,-0.115 1.601,-0.344 0.398,-0.229 0.662,-0.495 0.792,-0.8 0.128,-0.305 0.193,-1.067 0.193,-2.287 V 9.199 h -8.426 v 6.756 c 0,1.196 0.064,1.935 0.193,2.217 0.177,0.398 0.416,0.68 0.722,0.845 0.422,0.245 0.979,0.369 1.671,0.369 h 0.791 v 0.65 h -12.472 v -0.65 h 0.791 c 0.669,0 1.199,-0.115 1.592,-0.344 0.394,-0.229 0.654,-0.495 0.784,-0.8 0.128,-0.305 0.193,-1.067 0.193,-2.287 V 0.264 c 0,-1.197 -0.065,-1.936 -0.193,-2.217 -0.165,-0.4 -0.399,-0.68 -0.704,-0.845 -0.422,-0.246 -0.98,-0.369 -1.672,-0.369 h -0.791 v -0.651 h 12.472 v 0.651 h -0.791 c -0.669,0 -1.2,0.114 -1.592,0.343 -0.393,0.228 -0.657,0.496 -0.792,0.801 -0.135,0.303 -0.202,1.067 -0.202,2.287 v 7.387 z m 22.025,11.013 c 1.806,0 3.038,-0.104 3.694,-0.315 1.126,-0.353 1.997,-0.905 2.613,-1.655 0.615,-0.751 1.094,-1.988 1.433,-3.712 h 0.67 v 7.054 h -19.968 v -0.65 h 0.793 c 0.773,0 1.382,-0.165 1.829,-0.493 0.317,-0.223 0.533,-0.539 0.651,-0.951 0.058,-0.246 0.087,-0.909 0.087,-1.987 V 0.264 c 0,-1.197 -0.064,-1.936 -0.193,-2.217 -0.165,-0.4 -0.399,-0.68 -0.704,-0.845 -0.421,-0.246 -0.979,-0.369 -1.67,-0.369 h -0.793 v -0.651 h 20.617 l 1.073,7.582 h -0.651 c -0.584,-2.112 -1.55,-3.683 -2.893,-4.714 -1.343,-1.032 -3.128,-1.548 -5.356,-1.548 h -1.425 c -0.681,0 -1.173,0.094 -1.478,0.28 -0.305,0.188 -0.513,0.429 -0.625,0.722 -0.112,0.294 -0.167,1.097 -0.167,2.41 v 6.72 c 1.138,0 2.006,-0.15 2.604,-0.448 0.598,-0.299 1.123,-0.882 1.574,-1.75 0.452,-0.868 0.748,-1.983 0.889,-3.342 h 0.669 v 12.489 h -0.669 c -0.188,-1.853 -0.622,-3.255 -1.302,-4.205 -0.681,-0.95 -1.777,-1.424 -3.29,-1.424 h -0.475 v 9.71 z m 28.147,1.918 c -0.151,-0.716 -0.316,-1.168 -0.492,-1.354 -0.177,-0.188 -0.416,-0.282 -0.722,-0.282 -0.316,0 -0.87,0.19 -1.662,0.572 -0.791,0.38 -1.463,0.642 -2.015,0.783 -0.726,0.187 -1.477,0.281 -2.25,0.281 -2.125,0 -3.883,-0.668 -5.278,-2.005 -1.395,-1.338 -2.094,-2.957 -2.094,-4.855 0,-1.116 0.255,-2.135 0.766,-3.062 0.509,-0.926 1.239,-1.765 2.19,-2.515 0.95,-0.75 2.509,-1.661 4.678,-2.727 1.549,-0.763 2.627,-1.381 3.238,-1.856 0.609,-0.475 1.064,-0.977 1.363,-1.504 0.299,-0.528 0.448,-1.073 0.448,-1.636 0,-0.95 -0.39,-1.783 -1.17,-2.498 -0.78,-0.716 -1.826,-1.074 -3.14,-1.074 -1.7,0 -3.287,0.666 -4.758,1.998 -1.472,1.331 -2.466,3.263 -2.982,5.797 h -0.65 v -9.008 h 0.65 c 0.211,0.48 0.488,0.839 0.826,1.073 0.342,0.235 0.663,0.352 0.968,0.352 0.363,0 0.828,-0.117 1.39,-0.352 1.009,-0.422 1.847,-0.71 2.515,-0.862 0.669,-0.153 1.378,-0.229 2.129,-0.229 2.393,0 4.366,0.718 5.92,2.154 1.555,1.438 2.331,3.153 2.331,5.147 0,1.572 -0.48,2.967 -1.442,4.186 -0.974,1.22 -2.856,2.516 -5.648,3.889 -1.994,0.984 -3.266,1.67 -3.816,2.058 -0.752,0.539 -1.296,1.085 -1.637,1.636 -0.246,0.41 -0.37,0.879 -0.37,1.407 0,0.833 0.35,1.568 1.048,2.208 0.697,0.638 1.644,0.958 2.84,0.958 1.548,0 2.987,-0.607 4.319,-1.821 1.331,-1.212 2.166,-2.817 2.507,-4.811 h 0.721 l -0.194,7.952 z m 16.043,-23.749 c -0.668,0 -1.2,0.114 -1.592,0.343 -0.393,0.228 -0.656,0.496 -0.791,0.801 -0.135,0.303 -0.203,1.067 -0.203,2.287 v 15.691 c 0,1.196 0.065,1.935 0.194,2.217 0.176,0.398 0.416,0.68 0.72,0.845 0.424,0.245 0.981,0.369 1.672,0.369 h 0.791 v 0.65 H 176.69 v -0.65 h 0.792 c 0.668,0 1.199,-0.115 1.592,-0.344 0.393,-0.229 0.655,-0.495 0.782,-0.8 0.129,-0.305 0.194,-1.067 0.194,-2.287 V 0.264 c 0,-1.197 -0.065,-1.936 -0.194,-2.217 -0.164,-0.4 -0.398,-0.68 -0.704,-0.845 -0.422,-0.246 -0.978,-0.369 -1.67,-0.369 h -0.792 v -0.651 h 12.472 v 0.651 z m 6.642,20.204 c -2.41,-2.363 -3.616,-5.315 -3.616,-8.857 0,-3.156 0.926,-5.882 2.781,-8.18 2.344,-2.909 5.664,-4.363 9.956,-4.363 4.281,0 7.593,1.524 9.939,4.574 1.772,2.298 2.656,4.96 2.656,7.986 0,3.542 -1.187,6.492 -3.561,8.849 -2.376,2.357 -5.462,3.466 -9.263,3.325 -3.517,0.141 -6.483,-0.971 -8.892,-3.334 m 12.243,1.24 c 0.909,-0.645 1.657,-1.751 2.244,-3.316 0.585,-1.565 0.879,-3.926 0.879,-7.081 0,-2.651 -0.287,-4.799 -0.861,-6.447 -0.575,-1.648 -1.379,-2.846 -2.412,-3.597 -0.808,-0.586 -1.817,-0.88 -3.025,-0.88 -1.794,0 -3.189,0.681 -4.186,2.041 -1.431,1.946 -2.147,4.954 -2.147,9.024 0,3.424 0.463,6.051 1.39,7.881 1.137,2.229 2.798,3.342 4.978,3.342 1.185,0 2.232,-0.321 3.14,-0.967 M 240.038,4.556 c -0.552,-1.877 -1.135,-3.296 -1.751,-4.258 -0.615,-0.961 -1.346,-1.665 -2.19,-2.11 -0.844,-0.447 -1.9,-0.668 -3.166,-0.668 h -1.988 c -1.127,0 -1.836,0.051 -2.129,0.158 -0.411,0.163 -0.686,0.413 -0.826,0.748 -0.141,0.333 -0.213,1.111 -0.213,2.331 v 15.198 c 0,1.196 0.066,1.935 0.194,2.217 0.177,0.398 0.417,0.68 0.721,0.845 0.422,0.245 0.98,0.369 1.672,0.369 h 1.037 v 0.65 h -12.718 v -0.65 h 0.793 c 0.668,0 1.198,-0.115 1.591,-0.344 0.392,-0.229 0.653,-0.495 0.783,-0.8 0.129,-0.305 0.194,-1.067 0.194,-2.287 V 0.264 c 0,-1.197 -0.065,-1.936 -0.194,-2.217 -0.164,-0.4 -0.4,-0.68 -0.704,-0.845 -0.422,-0.246 -0.979,-0.369 -1.67,-0.369 h -0.793 v -0.651 h 21.181 l 0.898,8.374 z m 7.027,12.481 c -2.411,-2.363 -3.615,-5.315 -3.615,-8.857 0,-3.156 0.926,-5.882 2.78,-8.18 2.344,-2.909 5.665,-4.363 9.957,-4.363 4.281,0 7.592,1.524 9.938,4.574 1.771,2.298 2.657,4.96 2.657,7.986 0,3.542 -1.187,6.492 -3.562,8.849 -2.375,2.357 -5.462,3.466 -9.262,3.325 -3.519,0.141 -6.483,-0.971 -8.893,-3.334 m 12.244,1.24 c 0.909,-0.645 1.657,-1.751 2.244,-3.316 0.585,-1.565 0.879,-3.926 0.879,-7.081 0,-2.651 -0.288,-4.799 -0.863,-6.447 -0.574,-1.648 -1.378,-2.846 -2.41,-3.597 -0.809,-0.586 -1.818,-0.88 -3.025,-0.88 -1.794,0 -3.19,0.681 -4.188,2.041 -1.43,1.946 -2.145,4.954 -2.145,9.024 0,3.424 0.463,6.051 1.389,7.881 1.137,2.229 2.798,3.342 4.979,3.342 1.185,0 2.231,-0.321 3.14,-0.967 m 34.963,2.305 c -0.234,-0.668 -0.491,-1.124 -0.773,-1.363 -0.281,-0.241 -0.587,-0.362 -0.915,-0.362 -0.212,0 -0.895,0.22 -2.049,0.661 -1.156,0.439 -1.991,0.706 -2.507,0.8 -0.95,0.188 -2.017,0.282 -3.202,0.282 -3.823,0 -6.995,-1.238 -9.517,-3.712 -2.522,-2.475 -3.782,-5.506 -3.782,-9.095 0,-2.005 0.41,-3.818 1.231,-5.437 0.644,-1.253 1.54,-2.382 2.683,-3.386 1.144,-1.002 2.462,-1.812 3.957,-2.427 1.497,-0.615 3.375,-0.924 5.639,-0.924 1.772,0 3.481,0.174 5.128,0.52 1.648,0.345 3.233,0.858 4.758,1.539 v 4.96 c 0,0.868 0.054,1.413 0.159,1.636 0.187,0.422 0.454,0.725 0.8,0.906 0.346,0.182 0.959,0.301 1.839,0.36 V 6.192 H 286.128 V 5.54 h 0.615 c 0.574,0 1.066,-0.11 1.47,-0.333 0.404,-0.224 0.67,-0.473 0.8,-0.748 0.129,-0.275 0.193,-0.883 0.193,-1.821 v -4.96 c -0.633,-0.235 -1.252,-0.413 -1.856,-0.537 -0.604,-0.123 -1.194,-0.185 -1.768,-0.185 -1.652,0 -3.081,0.404 -4.283,1.214 -1.202,0.809 -2.072,2.076 -2.612,3.8 -0.541,1.724 -0.81,3.729 -0.81,6.016 0,1.888 0.247,3.729 0.739,5.525 0.493,1.794 1.331,3.192 2.516,4.194 1.184,1.003 2.668,1.505 4.45,1.505 1.865,0 3.583,-0.599 5.155,-1.794 1.572,-1.196 2.75,-2.944 3.535,-5.242 h 0.651 v 8.408 z m 22.149,-0.546 v -0.65 c 1.066,-0.059 1.801,-0.235 2.199,-0.529 0.305,-0.211 0.457,-0.474 0.457,-0.791 0,-0.574 -0.533,-1.742 -1.6,-3.501 l -4.293,-7.194 -4.31,7.899 c -0.938,1.7 -1.408,2.761 -1.408,3.183 0,0.223 0.138,0.434 0.415,0.633 0.274,0.2 0.759,0.3 1.45,0.3 h 0.511 v 0.65 h -11.435 v -0.65 c 0.762,-0.013 1.372,-0.198 1.829,-0.555 0.457,-0.358 1.243,-1.545 2.358,-3.561 L 308.205,5.049 V 0.264 c 0,-1.197 -0.063,-1.936 -0.193,-2.217 -0.176,-0.4 -0.416,-0.68 -0.721,-0.845 -0.41,-0.246 -0.967,-0.369 -1.671,-0.369 h -1.25 v -0.651 h 13.389 v 0.651 h -1.338 c -0.634,0 -1.141,0.114 -1.522,0.343 -0.381,0.228 -0.636,0.493 -0.765,0.792 -0.13,0.299 -0.194,1.064 -0.194,2.296 v 5.769 l 5.173,8.639 c 1.266,2.192 2.192,3.535 2.779,4.027 0.421,0.352 1.026,0.58 1.811,0.687 v 0.65 z" /></g></g></g></g></svg>