<?xml version="1.0" encoding="UTF-8" standalone="no"?>
<svg
   xmlns:dc="http://purl.org/dc/elements/1.1/"
   xmlns:cc="http://creativecommons.org/ns#"
   xmlns:rdf="http://www.w3.org/1999/02/22-rdf-syntax-ns#"
   xmlns:svg="http://www.w3.org/2000/svg"
   xmlns="http://www.w3.org/2000/svg"
   viewBox="0 0 533.33331 533.33331"
   height="533.33331"
   width="533.33331"
   xml:space="preserve"
   id="svg2"
   version="1.1"><metadata
     id="metadata8"><rdf:RDF><cc:Work
         rdf:about=""><dc:format>image/svg+xml</dc:format><dc:type
           rdf:resource="http://purl.org/dc/dcmitype/StillImage" /><dc:title></dc:title></cc:Work></rdf:RDF></metadata><defs
     id="defs6"><clipPath
       id="clipPath20"
       clipPathUnits="userSpaceOnUse"><path
         id="path18"
         d="M 50.995,93.356 H 351.26 v 287.28 H 50.995 Z" /></clipPath><clipPath
       id="clipPath32"
       clipPathUnits="userSpaceOnUse"><path
         id="path30"
         d="M 50.995,117.617 H 351.26 V 356.373 H 50.995 Z" /></clipPath><clipPath
       id="clipPath44"
       clipPathUnits="userSpaceOnUse"><path
         id="path42"
         d="M 50.995,93.356 H 351.26 v 287.28 H 50.995 Z" /></clipPath><clipPath
       id="clipPath176"
       clipPathUnits="userSpaceOnUse"><path
         id="path174"
         d="M 0,400 H 400 V 0 H 0 Z" /></clipPath></defs><g
     transform="matrix(1.3333333,0,0,-1.3333333,0,533.33333)"
     id="g10"><path
       id="path12"
       style="fill:#006862;fill-opacity:1;fill-rule:nonzero;stroke:none"
       d="M 0,0 H 400 V 400 H 0 Z" /><g
       id="g14"><g
         clip-path="url(#clipPath20)"
         id="g16"><g
           transform="translate(122.4888,264.4106)"
           id="g22"><path
             id="path24"
             style="fill:#ffffff;fill-opacity:1;fill-rule:nonzero;stroke:none"
             d="M 0,0 H 68.819 V 1.686 L 67.853,0.304 c 2.942,-2.048 6.956,-3.245 11.384,-3.25 4.43,0.005 8.443,1.202 11.385,3.25 L 89.657,1.686 V 0 h 68.818 V 3.373 H 89.125 L 88.691,3.068 C 86.447,1.493 83.047,0.42 79.237,0.426 75.429,0.42 72.028,1.493 69.785,3.068 L 69.35,3.373 H 0 Z" /></g></g></g><g
       id="g26"><g
         clip-path="url(#clipPath32)"
         id="g28"><g
           transform="translate(201.874,269.6631)"
           id="g34"><path
             id="path36"
             style="fill:#ffffff;fill-opacity:1;fill-rule:nonzero;stroke:none"
             d="M 0,0 C 11.366,14.525 32.858,11.871 47.704,7.469 56.553,4.845 72.287,3.63 76.668,4.604 l -19.801,72.3 C 50.642,76.32 40.139,79.562 34.368,81.703 24.495,85.363 8.475,90.62 0,82.174 c -8.473,8.446 -24.494,3.189 -34.366,-0.471 -5.771,-2.141 -16.276,-5.383 -22.5,-4.799 L -76.665,4.604 C -72.286,3.63 -56.551,4.845 -47.701,7.469 -32.857,11.871 -11.365,14.525 0,0" /></g></g></g><g
       id="g38"><g
         clip-path="url(#clipPath44)"
         id="g40"><g
           transform="translate(186.1738,347.228)"
           id="g46"><path
             id="path48"
             style="fill:#006862;fill-opacity:1;fill-rule:nonzero;stroke:none"
             d="m 0,0 c -6.776,-0.59 -13.752,-2.996 -18.981,-4.933 -3.996,-1.483 -10.319,-3.505 -15.801,-4.376 -0.495,-0.078 -0.833,-0.544 -0.754,-1.039 0.079,-0.495 0.544,-0.833 1.039,-0.754 5.688,0.907 12.07,2.956 16.147,4.467 5.185,1.925 12.044,4.269 18.507,4.826 0.499,0.043 0.869,0.483 0.826,0.983 C 0.939,-0.326 0.5,0.043 0,0 m -37.057,-21.13 c 4.101,0.597 8.509,1.682 12.166,2.834 1.75,0.55 3.408,1.095 4.882,1.582 5.717,1.895 12.984,3.947 19.733,4.048 0.501,0.008 0.901,0.42 0.894,0.922 -0.008,0.501 -0.421,0.901 -0.922,0.893 -7.089,-0.112 -14.49,-2.227 -20.275,-4.139 -1.472,-0.486 -3.12,-1.028 -4.857,-1.574 -3.57,-1.125 -7.908,-2.191 -11.882,-2.769 -0.496,-0.072 -0.84,-0.533 -0.768,-1.029 0.072,-0.496 0.533,-0.84 1.029,-0.768 m -2.559,-10.027 c 4.366,0.583 9.033,1.622 12.801,2.789 1.786,0.554 3.529,1.095 5.15,1.576 h 10e-4 c 5.708,1.705 12.598,3.321 19.112,3.319 0.62,0 1.236,-0.015 1.848,-0.045 0.501,-0.025 0.927,0.361 0.952,0.862 0.024,0.501 -0.361,0.927 -0.862,0.951 -0.643,0.033 -1.29,0.048 -1.938,0.048 -6.81,-0.003 -13.839,-1.669 -19.631,-3.395 h 0.002 c -1.637,-0.485 -3.385,-1.028 -5.172,-1.581 -3.654,-1.134 -8.25,-2.158 -12.503,-2.724 -0.497,-0.066 -0.847,-0.523 -0.78,-1.019 0.066,-0.498 0.523,-0.847 1.02,-0.781 m -2.559,-10.026 c 4.634,0.568 9.559,1.562 13.435,2.744 1.824,0.556 3.653,1.095 5.425,1.572 5.474,1.482 11.785,2.726 17.87,2.725 1.458,0 2.902,-0.07 4.319,-0.226 0.498,-0.054 0.947,0.305 1.001,0.804 0.055,0.498 -0.305,0.947 -0.803,1.001 -1.49,0.164 -3,0.237 -4.517,0.237 -6.33,-10e-4 -12.778,-1.283 -18.343,-2.788 -1.799,-0.485 -3.647,-1.029 -5.482,-1.589 -3.739,-1.141 -8.593,-2.123 -13.126,-2.678 -0.498,-0.061 -0.852,-0.514 -0.791,-1.011 0.062,-0.498 0.514,-0.852 1.012,-0.791 z m -2.557,-10.027 c 4.902,0.556 10.085,1.503 14.068,2.699 1.86,0.56 3.778,1.095 5.702,1.569 5.196,1.285 10.976,2.254 16.62,2.254 2.304,0 4.587,-0.162 6.797,-0.526 0.495,-0.081 0.962,0.254 1.044,0.748 0.081,0.495 -0.254,0.962 -0.749,1.044 -2.323,0.383 -4.703,0.549 -7.092,0.549 -5.851,0 -11.762,-0.998 -17.055,-2.306 -1.96,-0.482 -3.906,-1.026 -5.79,-1.593 -3.823,-1.15 -8.938,-2.09 -13.75,-2.634 -0.498,-0.056 -0.855,-0.506 -0.799,-1.005 0.056,-0.498 0.506,-0.856 1.004,-0.799 m -2.556,-10.026 c 5.17,0.543 10.609,1.443 14.701,2.654 6.365,1.889 13.959,3.447 21.386,3.445 3.146,0 6.262,-0.279 9.243,-0.924 0.49,-0.106 0.974,0.206 1.08,0.696 0.106,0.49 -0.205,0.973 -0.696,1.079 -3.131,0.678 -6.374,0.965 -9.627,0.965 -7.679,-0.001 -15.421,-1.599 -21.902,-3.52 -3.911,-1.16 -9.285,-2.056 -14.374,-2.59 -0.499,-0.052 -0.86,-0.499 -0.808,-0.997 0.052,-0.499 0.499,-0.861 0.997,-0.808 m 78.532,59.427 c 6.463,-0.557 13.322,-2.901 18.507,-4.826 4.077,-1.511 10.458,-3.56 16.146,-4.467 0.496,-0.079 0.961,0.259 1.04,0.754 0.079,0.495 -0.259,0.961 -0.754,1.039 -5.482,0.871 -11.805,2.893 -15.8,4.376 C 45.152,-2.996 38.178,-0.59 31.401,0 c -0.5,0.043 -0.939,-0.326 -0.983,-0.826 -0.043,-0.5 0.327,-0.94 0.826,-0.983 z m 37.478,-17.524 c -3.975,0.578 -8.313,1.644 -11.885,2.769 -1.734,0.546 -3.386,1.088 -4.857,1.574 -5.787,1.912 -13.186,4.027 -20.273,4.139 -0.502,0.008 -0.914,-0.392 -0.922,-0.893 -0.008,-0.502 0.393,-0.914 0.894,-0.922 6.748,-0.101 14.012,-2.153 19.732,-4.048 1.473,-0.487 3.133,-1.032 4.881,-1.582 3.659,-1.152 8.067,-2.237 12.168,-2.834 0.496,-0.072 0.957,0.272 1.029,0.768 0.073,0.496 -0.271,0.957 -0.767,1.029 m 2.536,-10.024 c -4.254,0.566 -8.848,1.59 -12.503,2.724 -1.787,0.553 -3.536,1.096 -5.173,1.581 -5.789,1.726 -12.818,3.392 -19.628,3.395 -0.648,0 -1.295,-0.015 -1.937,-0.048 -0.501,-0.024 -0.887,-0.45 -0.863,-0.951 0.026,-0.501 0.451,-0.887 0.952,-0.862 0.612,0.03 1.228,0.045 1.848,0.045 6.514,0.002 13.403,-1.614 19.11,-3.319 1.623,-0.481 3.366,-1.022 5.154,-1.576 3.767,-1.167 8.432,-2.206 12.8,-2.789 0.497,-0.066 0.953,0.283 1.019,0.781 0.067,0.496 -0.282,0.953 -0.779,1.019 m 2.539,-10.024 c -4.532,0.555 -9.388,1.537 -13.125,2.678 -1.835,0.56 -3.685,1.104 -5.483,1.589 -5.564,1.505 -12.011,2.787 -18.342,2.788 -1.516,0 -3.027,-0.073 -4.516,-0.237 -0.498,-0.054 -0.858,-0.503 -0.804,-1.001 0.055,-0.499 0.503,-0.858 1.002,-0.804 1.416,0.156 2.861,0.226 4.318,0.226 6.086,0.001 12.397,-1.243 17.869,-2.725 1.771,-0.477 3.602,-1.016 5.426,-1.572 3.875,-1.182 8.8,-2.176 13.434,-2.744 0.498,-0.061 0.951,0.293 1.012,0.791 0.06,0.497 -0.293,0.95 -0.791,1.011 m 2.54,-10.025 c -4.81,0.544 -9.926,1.484 -13.749,2.635 -1.884,0.566 -3.83,1.11 -5.79,1.592 -5.292,1.308 -11.203,2.306 -17.054,2.306 -2.39,0 -4.769,-0.166 -7.093,-0.549 -0.495,-0.082 -0.83,-0.549 -0.748,-1.044 0.081,-0.494 0.549,-0.829 1.043,-0.748 2.211,0.364 4.493,0.526 6.798,0.526 5.645,0 11.424,-0.969 16.618,-2.254 1.925,-0.474 3.842,-1.009 5.702,-1.569 3.984,-1.196 9.168,-2.143 14.069,-2.699 0.498,-0.057 0.947,0.301 1.004,0.799 0.056,0.499 -0.302,0.949 -0.8,1.005 m 2.542,-10.025 c -5.089,0.534 -10.465,1.43 -14.375,2.59 -6.482,1.921 -14.223,3.519 -21.901,3.52 -3.254,0 -6.497,-0.287 -9.627,-0.965 -0.491,-0.106 -0.802,-0.589 -0.696,-1.079 0.107,-0.49 0.59,-0.802 1.079,-0.696 2.981,0.645 6.097,0.924 9.244,0.924 7.426,0.002 15.02,-1.556 21.385,-3.445 4.092,-1.211 9.532,-2.111 14.701,-2.654 0.499,-0.053 0.946,0.309 0.998,0.808 0.052,0.498 -0.309,0.945 -0.808,0.997" /></g><g
           transform="translate(191.2891,351.1382)"
           id="g50"><path
             id="path52"
             style="fill:#006862;fill-opacity:1;fill-rule:nonzero;stroke:none"
             d="m 0,0 c -1.394,-1.361 -2.373,-2.712 -2.34,-5.025 0.044,-3.005 2.817,-5.652 6.248,-7.242 4.43,-2.052 8.45,-3.889 10.2,-4.582 3.376,-1.334 3.591,-2.059 3.61,-3.545 0.021,-1.591 -1.316,-2.205 -2.463,-2.205 -1.687,0 -3.014,0.792 -4.367,1.753 -1.34,0.95 -2.541,1.317 -4.301,1.317 -3.285,0 -7.558,-2.01 -7.522,-7.521 0.022,-3.242 2.012,-6.112 8.365,-8.538 3.113,-1.19 5.677,-2.465 6.875,-2.94 1.253,-0.496 2.375,-1.081 2.375,-2.658 0,-1.306 -0.95,-2.01 -2.226,-2.01 -1.189,0 -2.615,0.777 -3.869,1.582 -0.897,0.578 -1.814,0.861 -3.846,0.861 -2.378,0 -6.428,-1.752 -6.355,-6.399 0.043,-2.788 1.47,-5.079 4.495,-6.311 l 9.315,-3.891 c 1.211,-0.54 1.62,-1.233 1.579,-2.139 -0.043,-0.951 -0.793,-1.405 -1.772,-1.405 -0.864,0 -2.058,0.562 -3.458,1.296 -1.319,0.692 -2.508,1.211 -4.107,1.211 -2.831,0 -4.971,-2.011 -4.994,-5.037 -0.008,-1.288 0.78,-3.392 3.588,-4.754 1.763,-0.854 7.414,-3.395 8.862,-3.999 1.262,-0.528 2.639,-0.541 3.217,0.441 0.631,1.072 -0.392,2.43 -1.68,2.996 -1.29,0.565 -7.808,3.518 -9.554,4.3 -0.628,0.282 -1.104,0.672 -1.104,1.491 0,0.823 0.866,1.552 1.772,1.536 1.233,-0.022 5.383,-3.134 7.998,-3.134 2.581,0 5.625,2.392 5.599,5.554 -0.024,2.486 -1.061,4.367 -3.481,5.513 l -10.612,4.69 c -1.031,0.522 -1.709,1.015 -1.709,2.032 0,0.994 0.692,1.698 1.774,1.685 1.838,-0.021 3.588,-1.232 4.473,-1.68 0.495,-0.249 2.398,-1.175 4.215,-1.173 3.308,0.004 6.955,3.085 6.873,7.003 -0.081,3.942 -1.475,5.065 -4.084,6.311 -2.896,1.384 -7.503,3.388 -10.569,4.712 -2.552,1.102 -2.768,2.054 -2.768,3.135 0,1.75 0.887,2.183 2.271,2.183 1.373,0 2.787,-1.189 4.062,-2.006 1.624,-1.038 3.695,-1.105 5.763,-1.092 4.331,0.029 6.987,4.179 6.946,6.924 -0.065,4.365 -2.7,6.484 -6.029,7.931 -2,0.871 -6.831,2.926 -11.186,4.836 -1.589,0.698 -2.95,1.394 -2.953,2.816 -10e-4,1.435 0.727,1.655 1.381,2.372 0.653,0.717 0.948,2.49 -0.081,3.486 C 3.396,1.676 1.394,1.361 0,0" /></g><g
           transform="translate(191.9326,348.3843)"
           id="g54"><path
             id="path56"
             style="fill:#ffffff;fill-opacity:1;fill-rule:nonzero;stroke:none"
             d="m 0,0 c 0.607,0 1.1,0.492 1.1,1.101 0,0.606 -0.493,1.1 -1.1,1.1 -0.608,0 -1.102,-0.494 -1.102,-1.1 C -1.102,0.492 -0.608,0 0,0" /></g><g
           transform="translate(140.0566,236.1138)"
           id="g58"><path
             id="path60"
             style="fill:#ffffff;fill-opacity:1;fill-rule:nonzero;stroke:none"
             d="M 0,0 C 0,1.742 0,5.773 -0.544,7.245 -1.252,9.097 -3.672,9.097 -5.415,9.097 V 10.94 H 23.521 V 2.529 H 22.082 C 21.11,8.513 17.43,8.723 12.627,8.723 H 8.706 C 7.018,8.723 7.291,8.887 7.291,6.491 V -5.673 c 6.873,-0.301 7.974,2.766 8.316,6.887 h 1.628 c -0.055,-2.451 -0.109,-5.145 -0.217,-7.595 0.108,-2.233 0.162,-4.894 0.217,-7.128 h -1.628 c -0.728,5.461 -3.469,5.992 -8.316,5.992 v -8 c 0,-1.633 0,-4.567 0.98,-5.873 1.416,-1.907 4.793,-2.016 6.972,-1.963 4.514,0.088 8.833,1.056 9.516,7.299 h 1.439 l -0.117,-8.955 H -3.176 v 1.439 c 1.073,0 2.391,0.922 2.818,2.039 0.545,1.47 0.358,5.314 0.358,7.058 z" /></g><g
           transform="translate(228.9238,186.3164)"
           id="g62"><path
             id="path64"
             style="fill:#ffffff;fill-opacity:1;fill-rule:nonzero;stroke:none"
             d="m 0,0 c 0,1.742 0,5.773 -0.543,7.244 -0.709,1.852 -3.13,1.852 -4.872,1.852 V 10.94 H 23.522 V 2.528 h -1.44 C 21.11,8.514 17.431,8.723 12.629,8.723 H 8.708 C 7.019,8.723 7.29,8.887 7.29,6.49 V -5.673 c 6.873,-0.3 7.975,2.767 8.318,6.888 h 1.626 c -0.055,-2.453 -0.109,-5.145 -0.216,-7.597 0.107,-2.232 0.161,-4.893 0.216,-7.128 h -1.626 c -0.727,5.461 -3.469,5.993 -8.318,5.993 v -8.001 c 0,-1.632 0,-4.567 0.981,-5.873 1.416,-1.906 4.793,-2.017 6.971,-1.963 4.515,0.087 8.834,1.056 9.517,7.3 h 1.44 l -0.117,-8.957 H -3.176 v 1.441 c 1.074,0 2.392,0.922 2.818,2.038 C 0.188,-20.06 0,-16.217 0,-14.474 Z" /></g><g
           transform="translate(297.5693,186.3164)"
           id="g66"><path
             id="path68"
             style="fill:#ffffff;fill-opacity:1;fill-rule:nonzero;stroke:none"
             d="M 0,0 C 0,1.742 0,5.773 -0.545,7.244 -1.252,9.096 -3.672,9.096 -5.416,9.096 V 10.94 H 23.521 V 2.528 h -1.44 C 21.109,8.514 17.43,8.723 12.627,8.723 H 8.707 C 7.019,8.723 7.289,8.887 7.289,6.49 V -5.673 c 6.873,-0.3 7.976,2.767 8.319,6.888 h 1.625 c -0.053,-2.453 -0.108,-5.145 -0.217,-7.597 0.109,-2.232 0.164,-4.893 0.217,-7.128 h -1.625 c -0.728,5.461 -3.47,5.993 -8.319,5.993 v -8.001 c 0,-1.632 0,-4.567 0.982,-5.873 1.416,-1.906 4.792,-2.017 6.97,-1.963 4.515,0.087 8.835,1.056 9.516,7.3 h 1.441 L 26.08,-25.011 H -3.177 v 1.441 c 1.074,0 2.391,0.922 2.819,2.038 C 0.187,-20.06 0,-16.217 0,-14.474 Z" /></g><g
           transform="translate(180.105,220.8604)"
           id="g70"><path
             id="path72"
             style="fill:#ffffff;fill-opacity:1;fill-rule:nonzero;stroke:none"
             d="M 0,0 C 0,-1.853 -0.218,-4.468 0.871,-6.047 2.124,-7.9 4.341,-7.93 6.412,-7.93 c 8.412,0 9.89,6.966 9.89,14.552 0,10.135 -2.993,18.005 -12.708,18.005 -0.652,0 -2.778,0.109 -3.267,-0.381 C 0,23.92 0,22.994 0,22.558 Z m -7.104,15.641 c 0,1.742 0,5.774 -0.489,7.245 -0.6,1.905 -2.888,1.85 -4.629,1.85 v 1.549 c 2.232,-0.055 5.321,-0.163 7.609,-0.217 2.939,0.054 6.628,0.162 9.569,0.217 11.492,0.217 19.834,-6.971 19.834,-18.791 0,-11.549 -7.198,-17.54 -18.417,-17.268 -3.214,0.055 -7.228,0.165 -10.442,0.217 -2.506,-0.052 -5.703,-0.162 -8.153,-0.217 v 1.44 c 1.741,0 4.029,0 4.629,1.853 0.489,1.47 0.489,5.5 0.489,7.244 z" /></g><g
           transform="translate(208.2168,236.6104)"
           id="g74"><path
             id="path76"
             style="fill:#ffffff;fill-opacity:1;fill-rule:nonzero;stroke:none"
             d="m 0,0 c 0,1.742 0.372,5.213 -0.173,6.685 -0.708,1.851 -3.313,2.41 -5.056,2.41 v 1.44 c 2.614,-0.053 5.976,-0.164 8.589,-0.218 2.779,0.054 5.874,0.165 8.598,0.218 V 9.095 C 10.216,9.095 7.982,8.349 7.274,6.497 6.729,5.027 7.103,1.742 7.103,0 v -14.988 c 0,-1.744 -0.187,-5.215 0.358,-6.685 0.708,-1.852 3.874,-2.411 5.617,-2.411 v -1.44 c -2.558,0.054 -6.722,0.165 -9.337,0.219 -2.722,-0.054 -6.619,-0.165 -9.344,-0.219 v 1.44 c 1.744,0 4.538,0.373 5.243,2.225 0.547,1.472 0.36,5.127 0.36,6.871 z" /></g><g
           transform="translate(249.9082,247.2407)"
           id="g78"><path
             id="path80"
             style="fill:#ffffff;fill-opacity:1;fill-rule:nonzero;stroke:none"
             d="M 0,0 H 1.562 L 1.999,-10.356 H 0.372 c -0.873,5.7 -5.115,9.547 -10.56,9.547 -10.181,0 -12.316,-9.482 -12.316,-17.998 0,-7.706 3.189,-16.248 12.611,-16.248 6.914,0 9.94,5.928 11.105,11.983 h 1.542 v -12.301 h -1.27 l -1.307,2.964 c -2.939,-2.326 -5.239,-4.646 -11.848,-4.646 -11.819,0 -19.321,7.862 -19.321,18.248 0,12.698 8.345,19.811 19.809,19.811 4.467,0 6.554,-0.849 10.312,-3.19 z" /></g><g
           transform="translate(274.1025,225.459)"
           id="g82"><path
             id="path84"
             style="fill:#ffffff;fill-opacity:1;fill-rule:nonzero;stroke:none"
             d="M 0,0 -5.618,14.427 -11.291,0 Z m -12.303,-3.291 c -0.817,-2.069 -2.054,-5.168 -2.054,-7.291 0,-1.994 2.634,-2.37 4.226,-2.528 v -1.441 c -2.016,0.053 -4.35,0.164 -6.365,0.219 -1.906,-0.055 -4.318,-0.166 -6.225,-0.219 v 1.441 c 2.5,0.276 4.682,2.067 5.414,3.866 1.528,3.485 2.997,6.73 4.524,10.217 l 8.332,21.406 h 2.785 L 9.336,-5.105 c 0.653,-1.416 1.852,-4.74 2.832,-5.99 1.198,-1.581 2.831,-1.801 4.685,-2.015 v -1.441 c -2.56,0.053 -5.734,0.164 -8.295,0.219 -2.616,-0.055 -6.403,-0.166 -9.018,-0.219 v 1.441 c 1.136,0.039 4.194,0.893 4.194,2.442 0,0.525 -0.858,3.286 -1.089,3.875 L 0.521,-1.93 h -12.334 z" /></g><g
           transform="translate(294.79,236.5342)"
           id="g86"><path
             id="path88"
             style="fill:#ffffff;fill-opacity:1;fill-rule:nonzero;stroke:none"
             d="M 0,0 C 0,1.744 -0.186,5.588 -0.73,7.058 -1.438,8.91 -3.485,9.099 -5.229,9.099 v 1.437 c 2.615,-0.054 5.549,-0.162 8.163,-0.217 2.778,0.055 6.061,0.163 8.839,0.217 V 9.099 C 10.028,9.099 7.941,9.14 7.234,7.288 6.689,5.818 6.917,1.744 6.917,0 v -15.375 c 0,-6.974 0.529,-8.116 7.447,-8.116 2.429,0 4.625,-0.278 6.8,0.988 2.281,1.326 3.701,4.325 4.101,6.809 h 1.361 l -0.489,-9.829 c -0.927,0.055 -1.906,0.11 -2.832,0.218 -9.368,-0.163 -19.164,-0.163 -28.534,-0.218 v 1.44 c 1.744,0 4.165,0.559 4.872,2.411 0.545,1.471 0.357,4.943 0.357,6.686 z" /></g><g
           transform="translate(163.1851,186.5645)"
           id="g90"><path
             id="path92"
             style="fill:#ffffff;fill-opacity:1;fill-rule:nonzero;stroke:none"
             d="m 0,0 c 0,1.743 -0.187,5.588 -0.731,7.058 -0.709,1.853 -2.756,2.04 -4.497,2.04 v 1.438 c 2.614,-0.055 5.547,-0.163 8.16,-0.218 2.779,0.055 6.063,0.163 8.84,0.218 V 9.098 C 10.029,9.098 7.94,9.141 7.233,7.288 6.687,5.817 6.917,1.743 6.917,0 v -15.374 c 0,-6.974 0.528,-8.118 7.445,-8.118 2.43,0 4.627,-0.277 6.803,0.989 2.279,1.325 3.7,4.324 4.099,6.809 h 1.361 l -0.488,-9.829 c -0.928,0.055 -1.908,0.11 -2.833,0.218 -9.369,-0.163 -19.164,-0.163 -28.532,-0.218 v 1.44 c 1.741,0 4.162,0.56 4.869,2.411 0.546,1.471 0.359,4.943 0.359,6.686 z" /></g><g
           transform="translate(197.2598,186.5645)"
           id="g94"><path
             id="path96"
             style="fill:#ffffff;fill-opacity:1;fill-rule:nonzero;stroke:none"
             d="m 0,0 c 0,1.743 -0.187,5.588 -0.731,7.058 -0.708,1.853 -2.755,2.04 -4.498,2.04 v 1.438 c 2.614,-0.055 5.549,-0.163 8.163,-0.218 2.777,0.055 6.06,0.163 8.838,0.218 V 9.098 c -1.743,0 -3.83,0.043 -4.538,-1.81 C 6.688,5.817 6.916,1.743 6.916,0 v -15.374 c 0,-6.974 0.529,-8.118 7.446,-8.118 2.43,0 4.627,-0.277 6.802,0.989 2.28,1.325 3.701,4.324 4.1,6.809 h 1.361 l -0.488,-9.829 c -0.928,0.055 -1.908,0.11 -2.833,0.218 -9.368,-0.163 -19.163,-0.163 -28.533,-0.218 v 1.44 c 1.743,0 4.164,0.56 4.871,2.411 0.545,1.471 0.358,4.943 0.358,6.686 z" /></g><g
           transform="translate(127.313,178.5713)"
           id="g98"><path
             id="path100"
             style="fill:#ffffff;fill-opacity:1;fill-rule:nonzero;stroke:none"
             d="m 0,0 c 0,-7.903 3.106,-17.05 12.542,-17.05 8.832,0 11.145,10.135 11.145,17.213 0,7.652 -2.015,17.345 -11.47,17.345 C 4.005,17.508 0,9.974 0,0 m -8.301,0 c 0,12.05 9.748,19.353 20.736,19.353 10.618,0 19.926,-8.143 19.926,-18.971 0,-11.167 -9.329,-19.088 -20.332,-19.088 -10.88,0 -20.33,7.11 -20.33,18.706" /></g><g
           transform="translate(288.2773,186.7783)"
           id="g102"><path
             id="path104"
             style="fill:#ffffff;fill-opacity:1;fill-rule:nonzero;stroke:none"
             d="m 0,0 h -1.704 c -1.298,6.953 -5.408,9.766 -10.675,9.766 -9.67,0 -12.161,-9.649 -12.161,-18.039 0,-7.089 2.601,-16.176 11.297,-16.176 5.447,0 8.536,2.559 8.536,8.171 0,3.647 -1.361,4.356 -4.685,4.628 v 1.441 H 6.374 v -1.441 c -2.943,0.055 -3.752,-1.415 -3.752,-4.139 v -6.148 c -3.976,0 -4.863,-0.621 -8.24,-2.473 -2.777,-1.417 -5.447,-2.069 -8.551,-2.069 -11.097,0 -18.674,7.013 -18.674,18.316 0,11.674 8.052,19.929 19.438,19.929 4.029,0 7.686,-0.794 10.955,-3.245 l 1.142,2.264 h 1.535 z" /></g><g
           transform="translate(57.8115,132.9619)"
           id="g106"><path
             id="path108"
             style="fill:#ffffff;fill-opacity:1;fill-rule:nonzero;stroke:none"
             d="m 0,0 c 0,-6.576 2.535,-13.8 9.823,-13.8 7.501,0 9.293,7.925 9.293,13.932 0,6.438 -2.274,13.888 -9.558,13.888 C 1.932,14.02 0,5.703 0,0 m -6.817,0 c 0,9.766 8.13,15.396 16.552,15.396 8.419,0 16.385,-6.36 16.385,-15.088 0,-9.644 -7.917,-15.485 -16.562,-15.485 -8.596,0 -16.375,6.316 -16.375,15.177" /></g><g
           transform="translate(227.8457,132.9619)"
           id="g110"><path
             id="path112"
             style="fill:#ffffff;fill-opacity:1;fill-rule:nonzero;stroke:none"
             d="m 0,0 c 0,-6.576 2.533,-13.8 9.823,-13.8 7.499,0 9.293,7.925 9.293,13.932 0,6.438 -2.275,13.888 -9.557,13.888 C 1.933,14.02 0,5.703 0,0 m -6.816,0 c 0,9.766 8.128,15.396 16.551,15.396 8.42,0 16.386,-6.36 16.386,-15.088 0,-9.644 -7.918,-15.485 -16.562,-15.485 -8.596,0 -16.375,6.316 -16.375,15.177" /></g><g
           transform="translate(106.0879,140.6729)"
           id="g114"><path
             id="path116"
             style="fill:#ffffff;fill-opacity:1;fill-rule:nonzero;stroke:none"
             d="m 0,0 h -1.014 c -0.529,1.896 -0.97,3.748 -2.953,4.585 -1.895,0.837 -3.848,0.794 -5.964,0.794 -3.527,0 -3.395,0.308 -3.483,-2.47 v -9.501 c 4.269,-0.187 5.891,0.839 6.813,4.961 h 1.386 c -0.044,-1.984 -0.088,-4.013 -0.176,-5.995 0.088,-1.808 0.132,-3.658 0.176,-5.466 h -1.386 c -0.67,5.016 -2.053,4.716 -6.813,4.716 v -5.367 c 0,-1.367 -0.187,-4.069 0.255,-5.259 0.661,-1.765 2.822,-1.971 4.363,-2.06 v -1.201 c -2.247,0.045 -4.913,0.131 -7.162,0.176 -2.247,-0.045 -5.012,-0.131 -7.348,-0.176 v 1.201 c 1.41,0 3.405,0.186 3.978,1.685 0.441,1.191 0.254,4.267 0.254,5.678 v 12.058 c 0,1.412 0.187,4.487 -0.254,5.676 -0.573,1.5 -2.568,1.686 -3.978,1.686 v 1.2 c 2.689,-0.044 5.849,-0.132 8.451,-0.176 4.717,0.044 9.434,0.132 14.15,0.176 z" /></g><g
           transform="translate(135.2007,139.0039)"
           id="g118"><path
             id="path120"
             style="fill:#ffffff;fill-opacity:1;fill-rule:nonzero;stroke:none"
             d="m 0,0 -3.19,-10.851 c -1.19,-3.526 -2.424,-7.009 -3.615,-10.537 h -1.872 l -7.714,23.532 c -0.353,1.014 -0.783,3.163 -1.444,3.914 -0.75,1.013 -1.709,1.242 -2.988,1.333 V 8.59 c 2.117,-0.044 4.232,-0.132 6.349,-0.176 2.159,0.044 4.737,0.132 6.897,0.176 V 7.391 c -1.411,-0.133 -3.781,-0.133 -3.781,-2.162 0,-1.014 1.2,-4.275 1.509,-5.377 l 4.078,-12.82 6.626,21.558 h 1.97 l 7.031,-20.781 2.538,7.445 c 0.573,1.938 2.336,7.463 2.336,9.183 0,2.732 -1.212,2.732 -3.417,2.954 V 8.59 c 1.586,-0.044 3.174,-0.132 4.761,-0.176 1.543,0.044 3.042,0.132 4.584,0.176 V 7.391 C 17.396,7.478 16.78,4.04 16.074,1.571 l -6.9,-22.959 h -2.29 z" /></g><g
           transform="translate(159.7144,139.0322)"
           id="g122"><path
             id="path124"
             style="fill:#ffffff;fill-opacity:1;fill-rule:nonzero;stroke:none"
             d="M 0,0 C 0,1.411 0,4.673 -0.441,5.863 -1.014,7.362 -2.822,7.362 -4.232,7.362 V 8.561 C -2.117,8.518 0.56,8.43 2.676,8.386 4.924,8.43 7.313,8.518 9.518,8.561 V 7.362 C 8.108,7.362 6.3,7.176 5.727,5.676 5.287,4.486 5.66,1.411 5.66,0 v -12.06 c 0,-1.411 -0.187,-4.298 0.255,-5.489 0.572,-1.498 2.566,-1.871 3.977,-1.871 v -1.201 c -2.071,0.044 -4.792,0.131 -6.909,0.175 -2.203,-0.044 -5.012,-0.131 -7.215,-0.175 v 1.201 c 1.41,0 3.405,0.373 3.977,1.871 C 0.187,-16.358 0,-13.471 0,-12.06 Z" /></g><g
           transform="translate(170.7886,127.3174)"
           id="g126"><path
             id="path128"
             style="fill:#ffffff;fill-opacity:1;fill-rule:nonzero;stroke:none"
             d="m 0,0 h 1.387 c 0.882,-4.455 3.262,-8.015 8.331,-8.015 3.439,0 5.93,1.751 5.93,5.324 0,3.692 -3.957,5.414 -6.7,6.504 -4.011,1.542 -8.472,4.034 -8.472,9.057 0,5.026 4.482,8.123 9.287,8.123 2.425,0 4.486,-0.651 6.469,-2.061 l 1.014,1.718 h 0.858 l 0.408,-8.186 H 17.31 c -1.013,3.66 -2.899,6.966 -7.174,6.966 -2.822,0 -4.97,-1.621 -4.97,-4.486 0,-3.484 3.365,-4.003 6.047,-5.26 C 17,6.97 20.725,5.221 20.725,-0.839 c 0,-5.42 -4.373,-8.552 -11.094,-8.552 -2.998,0 -5.148,0.507 -7.528,2.271 L 1.231,-8.598 H 0 Z" /></g><g
           transform="translate(308.4248,139.0322)"
           id="g130"><path
             id="path132"
             style="fill:#ffffff;fill-opacity:1;fill-rule:nonzero;stroke:none"
             d="M 0,0 C 0,1.411 0,4.673 -0.44,5.863 -1.015,7.362 -2.821,7.362 -4.232,7.362 V 8.561 C -2.116,8.518 0.561,8.43 2.676,8.386 4.925,8.43 7.315,8.518 9.519,8.561 V 7.362 C 8.107,7.362 6.302,7.176 5.728,5.676 5.286,4.486 5.659,1.411 5.659,0 v -12.06 c 0,-1.411 -0.186,-4.298 0.256,-5.489 0.572,-1.498 2.566,-1.871 3.978,-1.871 v -1.201 c -2.073,0.044 -4.792,0.131 -6.91,0.175 -2.202,-0.044 -5.01,-0.131 -7.215,-0.175 v 1.201 c 1.411,0 3.404,0.373 3.976,1.871 C 0.187,-16.358 0,-13.471 0,-12.06 Z" /></g><g
           transform="translate(283.5928,127.3174)"
           id="g134"><path
             id="path136"
             style="fill:#ffffff;fill-opacity:1;fill-rule:nonzero;stroke:none"
             d="m 0,0 h 1.387 c 0.882,-4.455 3.262,-8.015 8.33,-8.015 3.439,0 5.931,1.751 5.931,5.324 0,3.692 -3.959,5.414 -6.701,6.504 -4.01,1.542 -8.472,4.034 -8.472,9.057 0,5.026 4.483,8.123 9.287,8.123 2.424,0 4.487,-0.651 6.47,-2.061 l 1.013,1.718 h 0.859 l 0.407,-8.186 H 17.31 c -1.013,3.66 -2.9,6.966 -7.174,6.966 -2.822,0 -4.97,-1.621 -4.97,-4.486 0,-3.484 3.364,-4.003 6.047,-5.26 5.785,-2.714 9.513,-4.463 9.513,-10.523 0,-5.42 -4.375,-8.552 -11.095,-8.552 -2.998,0 -5.148,0.507 -7.528,2.271 L 1.231,-8.598 H 0 Z" /></g><g
           transform="translate(217.3887,147.6484)"
           id="g138"><path
             id="path140"
             style="fill:#ffffff;fill-opacity:1;fill-rule:nonzero;stroke:none"
             d="M 0,0 H 1.035 L 1.389,-8.499 H 0.373 c -1.831,4.734 -2.739,7.773 -9.114,7.773 -7.458,0 -9.337,-7.703 -9.337,-14.228 0,-5.706 2.444,-13.194 9.425,-13.194 6.172,0 8.233,4.408 9.555,9.697 h 1.166 v -9.84 H 1.123 l -1.058,2.061 c -2.953,-2.335 -5.763,-3.493 -9.556,-3.493 -8.948,0 -15.405,5.775 -15.405,14.769 0,9.554 6.248,15.803 15.803,15.803 3.615,0 5.159,-0.651 8.2,-2.549 z" /></g><g
           transform="translate(256.3916,143.748)"
           id="g142"><path
             id="path144"
             style="fill:#ffffff;fill-opacity:1;fill-rule:nonzero;stroke:none"
             d="m 0,0 c -1.367,1.94 -2.238,2.603 -4.619,2.646 v 1.199 c 1.411,-0.043 3.151,-0.132 4.56,-0.175 1.146,0.043 2.711,0.132 4.043,0.175 l 17.944,-21.582 v 10.948 c 0,1.896 0,4.982 -0.397,6.789 -0.529,2.469 -1.344,2.292 -3.55,2.646 v 1.199 c 1.632,-0.043 3.218,-0.132 4.849,-0.175 1.543,0.043 3.041,0.132 4.673,0.175 V 2.646 c -1.632,-0.177 -2.775,-0.043 -3.349,-1.94 -0.442,-1.41 -0.53,-5.952 -0.53,-7.715 v -18.813 h -2.068 c -0.971,1.19 -2.314,2.798 -3.284,4.031 L 1.694,-1.828 v -14.066 c 0,-1.631 -0.072,-4.509 0.475,-6.061 0.626,-1.77 2.391,-2.005 4.022,-2.182 v -1.2 c -1.675,0.045 -3.581,0.13 -5.255,0.175 -1.632,-0.045 -3.449,-0.13 -5.081,-0.175 v 1.2 c 1.721,0.177 3.717,0.606 3.978,2.533 0.232,1.719 0.167,3.992 0.167,5.71 z" /></g><g
           transform="translate(323.7539,143.748)"
           id="g146"><path
             id="path148"
             style="fill:#ffffff;fill-opacity:1;fill-rule:nonzero;stroke:none"
             d="M 0,0 C -1.364,1.94 -2.235,2.603 -4.617,2.646 V 3.845 C -3.206,3.802 -1.467,3.713 -0.057,3.67 1.09,3.713 2.654,3.802 3.986,3.845 L 21.93,-17.737 v 10.948 c 0,1.896 0,4.982 -0.397,6.789 -0.53,2.469 -1.346,2.292 -3.551,2.646 v 1.199 c 1.632,-0.043 3.22,-0.132 4.849,-0.175 1.543,0.043 3.042,0.132 4.675,0.175 V 2.646 C 25.873,2.469 24.729,2.603 24.155,0.706 23.714,-0.704 23.626,-5.246 23.626,-7.009 v -18.813 h -2.068 c -0.971,1.19 -2.314,2.798 -3.284,4.031 L 1.696,-1.828 v -14.066 c 0,-1.631 -0.072,-4.509 0.475,-6.061 0.626,-1.77 2.391,-2.005 4.021,-2.182 v -1.2 c -1.674,0.045 -3.579,0.13 -5.255,0.175 -1.632,-0.045 -3.449,-0.13 -5.08,-0.175 v 1.2 c 1.719,0.177 3.718,0.606 3.978,2.533 0.232,1.719 0.165,3.992 0.165,5.71 z" /></g><g
           transform="translate(129.3066,219.5898)"
           id="g150"><path
             id="path152"
             style="fill:#ffffff;fill-opacity:1;fill-rule:nonzero;stroke:none"
             d="m 0,0 c 0,-4.747 -0.392,-6.513 5.487,-7.002 v -1.865 c -3.372,0.065 -6.549,0.195 -9.727,0.26 -3.242,-0.065 -6.363,-0.195 -9.604,-0.26 v 1.865 c 5.014,0.418 5.673,1.807 5.673,7.002 v 25.473 h -0.13 L -15.319,9.434 c -2.724,-6.226 -5.197,-12.076 -7.92,-18.301 h -1.581 l -15.011,34.153 h -0.13 V 0.972 c 0,-4.694 0.946,-7.733 5.852,-7.974 v -1.865 c -2.399,0.065 -4.798,0.195 -7.197,0.26 -2.27,-0.065 -4.539,-0.195 -6.808,-0.26 v 1.865 c 4.927,0 5.835,2.981 5.835,5.898 v 26.878 c 0,1.686 -0.26,3.372 -0.584,4.214 -0.842,2.204 -3.874,2.204 -5.949,2.204 v 1.866 c 2.205,-0.13 5.277,-0.195 7.482,-0.259 2.009,0.064 4.515,0.129 6.525,0.259 l 13.52,-31.519 13.503,31.519 c 2.01,-0.13 4.831,-0.195 6.841,-0.259 2.075,0.064 4.896,0.129 7.166,0.259 V 32.315 C 4.15,32.315 1.621,32.063 0.648,29.924 0,28.499 0,25.313 0,22.914 Z" /></g><g
           transform="translate(114.1011,204.1646)"
           id="g154"><path
             id="path156"
             style="fill:#ffffff;fill-opacity:1;fill-rule:nonzero;stroke:none"
             d="M 0,0 H 1.719 L 2.237,-12.961 H 0.561 C -0.745,-4.857 -6.581,-1.29 -12.936,-1.267 -25.19,-1.22 -27.11,-15.35 -27.11,-22.656 c 0,-9.49 3.906,-19.858 14.864,-19.858 8.635,0 11.923,7.06 13.77,14.452 H 3.252 V -42.823 H 1.849 l -1.557,3.308 c -3.907,-3.092 -9.307,-5.424 -14.143,-5.424 -12.559,0 -23.231,7.066 -23.231,22.283 0,14.719 10.12,23.627 23.628,23.627 4.866,0 8.567,-1.619 12.417,-4.019 z" /></g><g
           transform="translate(201.8691,275.915)"
           id="g158"><path
             id="path160"
             style="fill:#006862;fill-opacity:1;fill-rule:nonzero;stroke:none"
             d="M 0,0 1.441,67.345 2.653,68.475 2.648,70.663 0,69.286 l -2.647,1.377 -0.006,-2.188 1.211,-1.13 z" /></g><g
           transform="translate(201.8691,275.915)"
           id="g162"><path
             id="path164"
             style="fill:#006862;fill-opacity:1;fill-rule:nonzero;stroke:none"
             d="m 0,0 0.389,-0.008 1.438,67.181 1.092,1.017 c 0.079,0.074 0.124,0.178 0.123,0.286 L 3.037,70.664 C 3.036,70.799 2.965,70.926 2.85,70.996 2.734,71.065 2.589,71.07 2.469,71.008 L 0,69.724 -2.468,71.008 c -0.12,0.062 -0.265,0.057 -0.381,-0.012 -0.115,-0.07 -0.187,-0.197 -0.187,-0.332 l -0.006,-2.188 c 0,-0.108 0.045,-0.212 0.124,-0.286 l 1.091,-1.017 1.438,-67.181 c 0.004,-0.211 0.178,-0.381 0.389,-0.381 0.211,0 0.384,0.17 0.389,0.381 L 0,0 0.389,0.008 -1.054,67.354 c -0.002,0.105 -0.046,0.204 -0.123,0.276 l -1.087,1.014 0.004,1.379 2.08,-1.082 c 0.114,-0.059 0.246,-0.059 0.36,0 L 2.261,70.023 2.265,68.644 1.177,67.63 C 1.1,67.558 1.056,67.459 1.053,67.354 L -0.389,0.008 0,0 0.389,0.008 Z" /></g></g></g><g
       transform="translate(50.9946,91.7324)"
       id="g166"><path
         id="path168"
         style="fill:#ffffff;fill-opacity:1;fill-rule:nonzero;stroke:none"
         d="M 0,0 H 300.265 V 2.254 H 0" /></g><g
       id="g170"><g
         clip-path="url(#clipPath176)"
         id="g172"><g
           transform="translate(65.3262,49.6006)"
           id="g178"><path
             id="path180"
             style="fill:#ffffff;fill-opacity:1;fill-rule:nonzero;stroke:none"
             d="m 0,0 c 0.29,-0.682 0.445,-1.07 0.465,-1.163 0.062,-0.197 0.094,-0.388 0.094,-0.573 0,-0.311 -0.114,-0.549 -0.341,-0.715 -0.332,-0.227 -0.905,-0.341 -1.722,-0.341 H -1.923 V -3.365 H 8.251 v 0.573 C 7.61,-2.74 7.114,-2.555 6.762,-2.233 6.297,-1.81 5.703,-0.781 4.979,0.854 L -2.605,18.101 H -2.9 L -10.422,1.318 c -0.714,-1.603 -1.313,-2.66 -1.799,-3.172 -0.487,-0.511 -1.107,-0.824 -1.862,-0.938 v -0.573 h 6.995 v 0.573 c -1.096,0.082 -1.784,0.207 -2.062,0.373 -0.476,0.278 -0.714,0.713 -0.714,1.302 0,0.445 0.144,1.009 0.434,1.691 l 0.885,2.047 h 7.429 z m -8.003,3.77 3.226,7.242 3.133,-7.242 z M 9.058,17.665 v -0.573 c 0.641,-0.021 1.132,-0.118 1.474,-0.295 0.341,-0.176 0.733,-0.542 1.178,-1.101 l 0.45,-0.559 V 0.294 c 0,-1.116 -0.228,-1.907 -0.682,-2.372 -0.456,-0.465 -1.262,-0.703 -2.42,-0.714 v -0.573 h 7.461 v 0.573 h -0.497 c -0.713,0 -1.347,0.212 -1.9,0.636 -0.554,0.424 -0.83,1.241 -0.83,2.45 v 13.37 L 27.515,-3.847 h 0.527 v 17.511 c 0,0.993 0.085,1.693 0.256,2.102 0.171,0.408 0.409,0.703 0.713,0.883 0.305,0.182 0.903,0.329 1.792,0.443 v 0.573 h -6.949 v -0.573 c 1.169,0.021 2.001,-0.27 2.498,-0.868 0.361,-0.445 0.542,-1.298 0.542,-2.56 V 4.622 L 16.519,17.665 Z m 33.316,-1.209 c 1.591,0 2.677,-0.093 3.256,-0.278 0.993,-0.311 1.761,-0.797 2.304,-1.459 0.542,-0.661 0.964,-1.752 1.264,-3.273 h 0.589 v 6.219 H 32.183 v -0.573 h 0.698 c 0.683,0 1.22,-0.146 1.614,-0.435 0.278,-0.196 0.469,-0.475 0.573,-0.838 0.052,-0.216 0.078,-0.8 0.078,-1.752 V 0.232 c 0,-1.054 -0.057,-1.706 -0.171,-1.953 -0.145,-0.352 -0.351,-0.6 -0.62,-0.746 -0.372,-0.217 -0.864,-0.325 -1.474,-0.325 h -0.698 v -0.573 h 18.178 l 0.946,6.684 H 50.733 C 50.216,1.458 49.366,0.072 48.182,-0.837 46.998,-1.748 45.423,-2.202 43.459,-2.202 h -1.256 c -0.6,0 -1.035,0.083 -1.303,0.248 -0.269,0.165 -0.453,0.377 -0.551,0.636 -0.099,0.258 -0.147,0.966 -0.147,2.124 v 5.925 c 1.003,0 1.768,-0.132 2.295,-0.395 0.528,-0.264 0.99,-0.778 1.389,-1.543 0.398,-0.766 0.658,-1.748 0.783,-2.946 h 0.589 v 11.01 H 44.669 C 44.503,11.225 44.121,9.988 43.521,9.15 42.921,8.313 41.955,7.895 40.621,7.895 h -0.419 v 8.561 z m 24.814,1.69 c -0.134,-0.63 -0.278,-1.029 -0.434,-1.194 -0.154,-0.165 -0.367,-0.248 -0.635,-0.248 -0.279,0 -0.768,0.168 -1.466,0.505 -0.697,0.335 -1.29,0.565 -1.776,0.689 -0.641,0.165 -1.302,0.248 -1.985,0.248 -1.871,0 -3.422,-0.588 -4.653,-1.767 -1.231,-1.179 -1.846,-2.607 -1.846,-4.28 0,-0.984 0.225,-1.883 0.675,-2.7 0.45,-0.817 1.093,-1.556 1.931,-2.217 0.837,-0.662 2.212,-1.464 4.126,-2.405 1.364,-0.673 2.316,-1.217 2.854,-1.636 0.537,-0.418 0.938,-0.861 1.202,-1.327 0.263,-0.464 0.395,-0.945 0.395,-1.442 0,-0.837 -0.344,-1.571 -1.032,-2.202 -0.687,-0.631 -1.61,-0.946 -2.768,-0.946 -1.499,0 -2.898,0.586 -4.195,1.76 -1.298,1.174 -2.174,2.877 -2.629,5.111 h -0.575 v -7.942 h 0.575 c 0.186,0.424 0.428,0.74 0.729,0.947 0.299,0.207 0.584,0.31 0.853,0.31 0.32,0 0.729,-0.103 1.225,-0.31 0.889,-0.372 1.629,-0.626 2.218,-0.76 0.589,-0.135 1.214,-0.202 1.877,-0.202 2.109,0 3.848,0.633 5.219,1.9 1.369,1.267 2.054,2.779 2.054,4.537 0,1.386 -0.423,2.615 -1.271,3.691 -0.858,1.075 -2.518,2.217 -4.979,3.428 -1.757,0.869 -2.88,1.473 -3.366,1.814 -0.661,0.475 -1.142,0.957 -1.442,1.443 -0.217,0.362 -0.325,0.776 -0.325,1.24 0,0.735 0.307,1.383 0.923,1.947 0.614,0.563 1.45,0.845 2.504,0.845 1.365,0 2.634,-0.535 3.808,-1.605 1.173,-1.069 1.91,-2.484 2.209,-4.242 h 0.637 l -0.171,7.01 z m 4.359,-0.481 v -5.691 h 0.589 c 0.238,1.55 0.807,2.745 1.706,3.583 0.641,0.599 1.67,0.899 3.087,0.899 h 1.52 V 0.232 c 0,-1.054 -0.057,-1.706 -0.171,-1.953 -0.154,-0.352 -0.367,-0.6 -0.635,-0.746 -0.372,-0.217 -0.864,-0.325 -1.474,-0.325 h -0.698 v -0.573 h 11.012 v 0.573 h -0.698 c -0.6,0 -1.073,0.102 -1.419,0.303 -0.346,0.201 -0.579,0.436 -0.698,0.705 -0.119,0.268 -0.178,0.941 -0.178,2.016 v 16.224 h 1.566 c 0.982,0 1.67,-0.093 2.063,-0.278 0.703,-0.342 1.256,-0.8 1.659,-1.374 0.404,-0.574 0.771,-1.517 1.102,-2.83 h 0.558 v 5.691 z M 107.701,6.746 V 0.232 c 0,-1.054 -0.057,-1.706 -0.171,-1.953 -0.155,-0.352 -0.367,-0.6 -0.636,-0.746 -0.362,-0.217 -0.853,-0.325 -1.474,-0.325 h -0.682 v -0.573 h 10.981 v 0.573 h -0.682 c -0.59,0 -1.06,0.102 -1.412,0.303 -0.352,0.201 -0.584,0.436 -0.698,0.705 -0.114,0.268 -0.17,0.941 -0.17,2.016 v 13.835 c 0,1.055 0.056,1.706 0.17,1.955 0.156,0.351 0.367,0.599 0.636,0.745 0.362,0.216 0.854,0.325 1.474,0.325 h 0.682 v 0.573 h -10.981 v -0.573 h 0.682 c 0.59,0 1.06,-0.101 1.412,-0.303 0.351,-0.201 0.584,-0.436 0.698,-0.705 0.114,-0.269 0.171,-0.941 0.171,-2.017 V 8.111 h -7.43 v 5.956 c 0,1.055 0.057,1.706 0.171,1.955 0.155,0.351 0.367,0.599 0.636,0.745 0.372,0.216 0.863,0.325 1.473,0.325 h 0.699 v 0.573 H 92.253 v -0.573 h 0.698 c 0.589,0 1.057,-0.101 1.403,-0.303 0.347,-0.201 0.577,-0.436 0.691,-0.705 0.113,-0.269 0.17,-0.941 0.17,-2.017 V 0.232 c 0,-1.054 -0.057,-1.706 -0.17,-1.953 -0.146,-0.352 -0.352,-0.6 -0.621,-0.746 -0.372,-0.217 -0.863,-0.325 -1.473,-0.325 h -0.698 v -0.573 h 10.997 v 0.573 h -0.699 c -0.589,0 -1.057,0.102 -1.404,0.303 -0.346,0.201 -0.579,0.436 -0.697,0.705 -0.119,0.268 -0.179,0.941 -0.179,2.016 v 6.514 z m 19.418,9.71 c 1.592,0 2.678,-0.093 3.257,-0.278 0.993,-0.311 1.761,-0.797 2.303,-1.459 0.543,-0.661 0.965,-1.752 1.264,-3.273 h 0.591 v 6.219 h -17.605 v -0.573 h 0.698 c 0.683,0 1.22,-0.146 1.613,-0.435 0.28,-0.196 0.47,-0.475 0.574,-0.838 0.052,-0.216 0.078,-0.8 0.078,-1.752 V 0.232 c 0,-1.054 -0.057,-1.706 -0.171,-1.953 -0.145,-0.352 -0.352,-0.6 -0.62,-0.746 -0.372,-0.217 -0.864,-0.325 -1.474,-0.325 h -0.698 v -0.573 h 18.176 l 0.948,6.684 h -0.575 c -0.515,-1.861 -1.367,-3.247 -2.55,-4.156 -1.185,-0.911 -2.759,-1.365 -4.723,-1.365 h -1.256 c -0.6,0 -1.034,0.083 -1.303,0.248 -0.269,0.165 -0.453,0.377 -0.551,0.636 -0.098,0.258 -0.148,0.966 -0.148,2.124 v 5.925 c 1.004,0 1.769,-0.132 2.296,-0.395 0.528,-0.264 0.99,-0.778 1.388,-1.543 0.398,-0.766 0.66,-1.748 0.784,-2.946 h 0.589 v 11.01 h -0.589 c -0.166,-1.632 -0.548,-2.869 -1.148,-3.707 -0.6,-0.837 -1.567,-1.255 -2.901,-1.255 h -0.419 v 8.561 z m 24.817,1.69 c -0.134,-0.63 -0.28,-1.029 -0.435,-1.194 -0.155,-0.165 -0.367,-0.248 -0.637,-0.248 -0.278,0 -0.766,0.168 -1.465,0.505 -0.697,0.335 -1.29,0.565 -1.776,0.689 -0.641,0.165 -1.302,0.248 -1.984,0.248 -1.872,0 -3.424,-0.588 -4.654,-1.767 -1.23,-1.179 -1.845,-2.607 -1.845,-4.28 0,-0.984 0.224,-1.883 0.674,-2.7 0.45,-0.817 1.093,-1.556 1.931,-2.217 0.838,-0.662 2.213,-1.464 4.126,-2.405 1.364,-0.673 2.316,-1.217 2.854,-1.636 0.537,-0.418 0.938,-0.861 1.202,-1.327 0.262,-0.464 0.395,-0.945 0.395,-1.442 0,-0.837 -0.343,-1.571 -1.031,-2.202 -0.688,-0.631 -1.61,-0.946 -2.769,-0.946 -1.499,0 -2.898,0.586 -4.196,1.76 -1.298,1.174 -2.174,2.877 -2.628,5.111 h -0.573 v -7.942 h 0.573 c 0.186,0.424 0.429,0.74 0.729,0.947 0.301,0.207 0.584,0.31 0.852,0.31 0.321,0 0.731,-0.103 1.226,-0.31 0.89,-0.372 1.629,-0.626 2.218,-0.76 0.589,-0.135 1.214,-0.202 1.877,-0.202 2.109,0 3.848,0.633 5.219,1.9 1.37,1.267 2.055,2.779 2.055,4.537 0,1.386 -0.424,2.615 -1.271,3.691 -0.859,1.075 -2.519,2.217 -4.98,3.428 -1.758,0.869 -2.88,1.473 -3.365,1.814 -0.662,0.475 -1.143,0.957 -1.443,1.443 -0.216,0.362 -0.326,0.776 -0.326,1.24 0,0.735 0.309,1.383 0.924,1.947 0.615,0.563 1.449,0.845 2.504,0.845 1.365,0 2.634,-0.535 3.809,-1.605 1.172,-1.069 1.909,-2.484 2.21,-4.242 h 0.634 l -0.17,7.01 z M 166.08,-2.792 c -0.589,0 -1.059,0.102 -1.404,0.303 -0.347,0.201 -0.578,0.436 -0.697,0.705 -0.12,0.268 -0.179,0.941 -0.179,2.016 v 13.835 c 0,1.055 0.056,1.706 0.171,1.955 0.155,0.351 0.366,0.599 0.634,0.745 0.374,0.216 0.865,0.325 1.475,0.325 h 0.697 v 0.573 h -10.996 v -0.573 h 0.698 c 0.589,0 1.057,-0.101 1.404,-0.303 0.346,-0.201 0.576,-0.436 0.69,-0.705 0.114,-0.269 0.17,-0.941 0.17,-2.017 V 0.232 c 0,-1.054 -0.056,-1.706 -0.17,-1.953 -0.145,-0.352 -0.351,-0.6 -0.621,-0.746 -0.372,-0.217 -0.863,-0.325 -1.473,-0.325 h -0.698 v -0.573 h 10.996 v 0.573 z m 5.856,17.813 c -2.126,-2.083 -3.188,-4.686 -3.188,-7.809 0,-2.781 0.816,-5.186 2.451,-7.212 2.067,-2.564 4.993,-3.847 8.779,-3.847 3.773,0 6.694,1.344 8.762,4.034 1.562,2.026 2.342,4.373 2.342,7.041 0,3.123 -1.047,5.723 -3.141,7.801 -2.094,2.078 -4.815,3.056 -8.166,2.932 -3.101,0.124 -5.715,-0.856 -7.839,-2.94 m 10.793,1.093 c 0.802,-0.568 1.461,-1.543 1.979,-2.923 0.516,-1.38 0.774,-3.462 0.774,-6.243 0,-2.337 -0.253,-4.231 -0.758,-5.684 -0.507,-1.453 -1.216,-2.51 -2.126,-3.171 -0.713,-0.518 -1.603,-0.777 -2.667,-0.777 -1.581,0 -2.813,0.601 -3.692,1.8 -1.261,1.716 -1.892,4.368 -1.892,7.956 0,3.02 0.408,5.335 1.225,6.949 1.003,1.964 2.467,2.947 4.39,2.947 1.044,0 1.967,-0.284 2.767,-0.854 M 211.632,4.017 c -0.486,-1.655 -1,-2.906 -1.543,-3.753 -0.543,-0.848 -1.187,-1.469 -1.932,-1.862 -0.744,-0.393 -1.674,-0.589 -2.791,-0.589 h -1.753 c -0.992,0 -1.618,0.046 -1.876,0.14 -0.362,0.145 -0.605,0.364 -0.729,0.659 -0.124,0.294 -0.187,0.98 -0.187,2.055 v 13.4 c 0,1.055 0.057,1.706 0.17,1.955 0.155,0.351 0.368,0.599 0.637,0.745 0.372,0.216 0.863,0.325 1.474,0.325 h 0.915 v 0.573 h -11.214 v -0.573 h 0.698 c 0.589,0 1.057,-0.101 1.403,-0.303 0.346,-0.201 0.576,-0.436 0.691,-0.705 0.113,-0.269 0.171,-0.941 0.171,-2.017 V 0.232 c 0,-1.054 -0.058,-1.706 -0.171,-1.953 -0.146,-0.352 -0.352,-0.6 -0.62,-0.746 -0.372,-0.217 -0.864,-0.325 -1.474,-0.325 h -0.698 v -0.573 h 18.674 l 0.792,7.382 z m 6.196,11.004 c -2.126,-2.083 -3.187,-4.686 -3.187,-7.809 0,-2.781 0.816,-5.186 2.451,-7.212 2.067,-2.564 4.994,-3.847 8.778,-3.847 3.774,0 6.694,1.344 8.763,4.034 1.561,2.026 2.342,4.373 2.342,7.041 0,3.123 -1.047,5.723 -3.141,7.801 -2.094,2.078 -4.815,3.056 -8.166,2.932 -3.102,0.124 -5.716,-0.856 -7.84,-2.94 m 10.795,1.093 c 0.801,-0.568 1.46,-1.543 1.978,-2.923 0.516,-1.38 0.774,-3.462 0.774,-6.243 0,-2.337 -0.253,-4.231 -0.759,-5.684 -0.507,-1.453 -1.216,-2.51 -2.126,-3.171 -0.713,-0.518 -1.602,-0.777 -2.667,-0.777 -1.581,0 -2.812,0.601 -3.691,1.8 -1.262,1.716 -1.893,4.368 -1.893,7.956 0,3.02 0.409,5.335 1.226,6.949 1.003,1.964 2.467,2.947 4.389,2.947 1.044,0 1.967,-0.284 2.769,-0.854 m 30.826,2.032 c -0.207,-0.588 -0.433,-0.99 -0.682,-1.202 -0.248,-0.212 -0.518,-0.318 -0.807,-0.318 -0.187,0 -0.788,0.194 -1.807,0.583 -1.019,0.387 -1.756,0.622 -2.21,0.705 -0.838,0.165 -1.779,0.248 -2.823,0.248 -3.371,0 -6.168,-1.091 -8.391,-3.272 -2.223,-2.182 -3.333,-4.855 -3.333,-8.019 0,-1.767 0.36,-3.366 1.084,-4.793 0.569,-1.105 1.358,-2.1 2.366,-2.986 1.008,-0.884 2.171,-1.597 3.489,-2.14 1.318,-0.542 2.976,-0.814 4.971,-0.814 1.562,0 3.069,0.153 4.521,0.458 1.453,0.304 2.852,0.758 4.195,1.357 v 4.373 c 0,0.765 0.047,1.246 0.14,1.444 0.165,0.372 0.4,0.637 0.705,0.797 0.306,0.161 0.846,0.267 1.622,0.319 V 5.46 H 252.268 V 4.886 h 0.543 c 0.505,0 0.938,-0.099 1.295,-0.294 0.357,-0.197 0.591,-0.418 0.706,-0.66 0.113,-0.244 0.17,-0.778 0.17,-1.606 v -4.373 c -0.558,-0.207 -1.104,-0.364 -1.636,-0.474 -0.534,-0.108 -1.053,-0.163 -1.559,-0.163 -1.458,0 -2.717,0.358 -3.776,1.071 -1.061,0.713 -1.827,1.83 -2.303,3.35 -0.477,1.52 -0.715,3.288 -0.715,5.305 0,1.664 0.218,3.287 0.652,4.87 0.435,1.582 1.173,2.815 2.218,3.698 1.044,0.884 2.352,1.327 3.924,1.327 1.645,0 3.159,-0.528 4.545,-1.582 1.386,-1.054 2.425,-2.595 3.117,-4.622 h 0.573 v 7.413 z m 19.528,-0.481 v -0.573 c 0.939,-0.052 1.586,-0.207 1.938,-0.466 0.269,-0.186 0.402,-0.418 0.402,-0.697 0,-0.507 -0.469,-1.535 -1.411,-3.087 l -3.784,-6.343 -3.8,6.964 c -0.827,1.499 -1.241,2.434 -1.241,2.807 0,0.196 0.122,0.381 0.365,0.558 0.242,0.176 0.669,0.264 1.28,0.264 h 0.45 v 0.573 h -10.081 v -0.573 c 0.671,-0.011 1.209,-0.174 1.612,-0.488 0.402,-0.317 1.096,-1.364 2.078,-3.141 l 4.947,-9.012 V 0.232 c 0,-1.054 -0.055,-1.706 -0.17,-1.953 -0.155,-0.352 -0.367,-0.6 -0.635,-0.746 -0.363,-0.217 -0.853,-0.325 -1.474,-0.325 h -1.101 v -0.573 h 11.803 v 0.573 h -1.178 c -0.56,0 -1.006,0.102 -1.342,0.303 -0.337,0.201 -0.562,0.434 -0.675,0.697 -0.114,0.265 -0.171,0.939 -0.171,2.024 V 5.32 l 4.561,7.616 c 1.116,1.932 1.932,3.117 2.45,3.55 0.372,0.311 0.904,0.512 1.596,0.606 v 0.573 z" /></g></g></g></g></svg>